<?xml version="1.0" encoding="utf-8"?>
<!-- Generator: Adobe Illustrator 25.4.7, SVG Export Plug-In . SVG Version: 6.00 Build 0)  -->
<svg version="1.1" id="Layer_1" xmlns="http://www.w3.org/2000/svg" xmlns:xlink="http://www.w3.org/1999/xlink" x="0px" y="0px"
	 viewBox="0 0 460 310" style="enable-background:new 0 0 460 310;" xml:space="preserve">
<style type="text/css">
	.st0{fill:url(#Path_66-3_00000181074549665097688800000001435953968301336975_);}
	.st1{fill:#333333;}
	.st2{fill:#DCDCDC;}
	.st3{fill:url(#Path_80_00000004530518188134737120000000974904622466261428_);}
	.st4{fill:url(#Path_81_00000039855876493212878520000006205423987214633139_);}
	.st5{fill:url(#Rectangle_38_00000122700991087772392450000009984697105423186598_);}
	.st6{fill:none;stroke:#000000;stroke-width:4;stroke-miterlimit:10;}
	.st7{fill:url(#Path_83_00000144331638268022813430000005540935302240581807_);}
	.st8{fill:#EE6C4A;}
	.st9{opacity:0.4;}
	.st10{fill:#FFFEF9;}
</style>
<g id="Group_67">
	
		<linearGradient id="Path_66-3_00000052082094492495631920000001318463820587136434_" gradientUnits="userSpaceOnUse" x1="-1484.5914" y1="-6176.5996" x2="-1484.5914" y2="-6175.5996" gradientTransform="matrix(190.88 0 0 130.34 283600.4688 805235.3125)">
		<stop  offset="0" style="stop-color:#FFFFFF"/>
		<stop  offset="0.49" style="stop-color:#51514F"/>
		<stop  offset="0.61" style="stop-color:#FFFFFF"/>
		<stop  offset="0.69" style="stop-color:#626261"/>
		<stop  offset="0.77" style="stop-color:#474746"/>
		<stop  offset="0.92" style="stop-color:#141414"/>
		<stop  offset="1" style="stop-color:#000000"/>
	</linearGradient>
	<path id="Path_66-3" style="fill:url(#Path_66-3_00000052082094492495631920000001318463820587136434_);" d="M126.2,304.7
		c58.3-48.8,66.3-76.8,61.5-93.6c-2.2-7.5-6.8-12.2-4.6-18.4c8.1-23,92.5-19.9,96.3-3.7c1.7,7.2-13.9,10.9-19.3,24.8
		c-9.7,25,22,61.4,56.9,92.7L126.2,304.7z"/>
	<path id="Rectangle_28-3" class="st1" d="M10.1,3.5h439.8c4.9,0,8.9,4,8.9,8.9v213.8c0,4.9-4,8.9-8.9,8.9H10.1
		c-4.9,0-8.9-4-8.9-8.9V12.4C1.2,7.5,5.2,3.5,10.1,3.5z"/>
	<path id="Rectangle_29-3" class="st2" d="M18.2,8.8h423.6c4.9,0,8.9,4,8.9,8.9v203.2c0,4.9-4,8.9-8.9,8.9H18.2
		c-4.9,0-8.9-4-8.9-8.9V17.7C9.3,12.8,13.3,8.8,18.2,8.8z"/>
	<g id="Group_65">
		
			<linearGradient id="Path_80_00000064356019065112210730000009305683056776060289_" gradientUnits="userSpaceOnUse" x1="-1482.6825" y1="-6175.998" x2="-1481.6826" y2="-6175.998" gradientTransform="matrix(107.1 0 0 131 158979.7188 809189.25)">
			<stop  offset="1.000000e-02" style="stop-color:#FFFFFF"/>
			<stop  offset="0.13" style="stop-color:#F8F8F8"/>
			<stop  offset="0.32" style="stop-color:#E5E5E5"/>
			<stop  offset="0.54" style="stop-color:#C5C5C5"/>
			<stop  offset="0.78" style="stop-color:#9A9A9A"/>
			<stop  offset="1" style="stop-color:#6D6D6D"/>
		</linearGradient>
		<path id="Path_80" style="fill:url(#Path_80_00000064356019065112210730000009305683056776060289_);" d="M291.5,195.1l-15.7,4
			h-91.4V68h107.1V195.1z"/>
		
			<linearGradient id="Path_81_00000109030996309530181650000008088185842537977244_" gradientUnits="userSpaceOnUse" x1="-1482.6533" y1="-7156.1646" x2="-1481.6533" y2="-7156.1646" gradientTransform="matrix(107.1 0 0 6.2 158963.7969 44439.3398)">
			<stop  offset="1.000000e-02" style="stop-color:#000000"/>
			<stop  offset="0.16" style="stop-color:#060606"/>
			<stop  offset="0.39" style="stop-color:#191919"/>
			<stop  offset="0.65" style="stop-color:#383838"/>
			<stop  offset="0.94" style="stop-color:#646464"/>
			<stop  offset="1" style="stop-color:#6D6D6D"/>
		</linearGradient>
		<path id="Path_81" style="fill:url(#Path_81_00000109030996309530181650000008088185842537977244_);" d="M178.7,74.2h96.9V68
			h-96.9l-10.2,6.2L178.7,74.2z"/>
		
			<linearGradient id="Rectangle_38_00000045607066304368858280000015949272815957159320_" gradientUnits="userSpaceOnUse" x1="-1482.6832" y1="-6178.1938" x2="-1481.6832" y2="-6178.1938" gradientTransform="matrix(107.1 0 0 124.81 158966.0781 771237)">
			<stop  offset="1.000000e-02" style="stop-color:#FFFFFF"/>
			<stop  offset="0.13" style="stop-color:#F8F8F8"/>
			<stop  offset="0.32" style="stop-color:#E5E5E5"/>
			<stop  offset="0.54" style="stop-color:#C5C5C5"/>
			<stop  offset="0.78" style="stop-color:#9A9A9A"/>
			<stop  offset="1" style="stop-color:#6D6D6D"/>
		</linearGradient>
		
			<rect id="Rectangle_38" x="168.5" y="74.2" style="fill:url(#Rectangle_38_00000045607066304368858280000015949272815957159320_);" width="107.1" height="124.8"/>
		<path id="Path_82" class="st6" d="M209.2,92.4c0-1.5,0-3.6,0-6.1c0.2-27.2,0.4-40.9,6.9-45c4.7-2.9,11.5-2.2,15.4,0.5
			c4.4,3,5.4,8.2,6.1,15.9c1.1,11.7,1.3,23.5,0.4,35.3"/>
		
			<linearGradient id="Path_83_00000125571748188085891300000011391387266735145378_" gradientUnits="userSpaceOnUse" x1="-1451.0573" y1="-7156.1646" x2="-1450.0573" y2="-7156.1646" gradientTransform="matrix(15.93 0 0 6.2 23393.2305 44439.3398)">
			<stop  offset="1.000000e-02" style="stop-color:#000000"/>
			<stop  offset="0.16" style="stop-color:#060606"/>
			<stop  offset="0.39" style="stop-color:#191919"/>
			<stop  offset="0.65" style="stop-color:#383838"/>
			<stop  offset="0.94" style="stop-color:#646464"/>
			<stop  offset="1" style="stop-color:#6D6D6D"/>
		</linearGradient>
		<path id="Path_83" style="fill:url(#Path_83_00000125571748188085891300000011391387266735145378_);" d="M275.6,74.2V68h15.9
			L275.6,74.2z"/>
		<path id="Path_84" class="st6" d="M218.4,69.2c0-0.8,0-1.9,0-3.2c0.1-11.1,0.4-20,6.2-23.7c3-1.9,6.7-2.3,10.1-1.3
			c5,1.7,8.4,7.2,7.9,13.7v13.8"/>
	</g>
	<g id="Group_66">
		<path id="Path_1" class="st8" d="M212.2,114.3v10.1h-2.4v-10.1H212.2z"/>
		<path id="Path_2" class="st8" d="M220.3,128.6h-8.1v1.4c-0.2,0.9,0,1.9,0.5,2.6c0.6,0.7,1.3,1.3,2.2,1.5c1.7,0.5,3.5,0.3,5-0.5
			v2.7c-1.8,0.7-3.7,0.8-5.6,0.3c-0.8-0.2-1.5-0.6-2.1-1.1c-0.5-0.4-1-0.9-1.4-1.5c-0.1,0.4-0.3,0.7-0.5,1c-0.8,1-1.9,1.7-3.2,2
			c-1.8,0.5-3.8,0.5-5.6-0.1v-2.2c1.6,0.6,3.4,0.6,5,0c0.8-0.3,1.6-0.9,2.1-1.6c0.4-0.9,0.6-2,0.5-3c0-0.6,0-1.1,0-1.4h-8v-2.6h19.1
			L220.3,128.6z"/>
		<path id="Path_3" class="st8" d="M201.4,140.7l18.9,0.1v2.3l-18.9-0.1L201.4,140.7z"/>
		<path id="Path_4" class="st8" d="M235.9,136.8c3,0,4.6,1.1,4.6,3c0,1.6-1,2.6-3,3.3l-10.2,3.2c-0.5,0.1-0.9,0.5-0.9,1
			c0,0.5,0.5,0.9,1.4,0.9h12.4v2.4h-12.6c-3,0-4.5-1.1-4.5-3.1c0-1.6,1-2.6,3-3.3l10.2-3.2c0.6-0.2,1-0.6,1-1s-0.5-0.9-1.4-0.9
			h-12.1v-2.4L235.9,136.8z"/>
		<path id="Path_5" class="st8" d="M233.2,121.5v13.3h-2.6v-13.3L233.2,121.5z"/>
		<path id="Path_6" class="st8" d="M237.6,134.9h-2.7l5-11.9c0.5-1.2,1.7-1.9,3-1.7c1.2-0.1,2.4,0.6,2.9,1.7l4.8,11.9h-2.7
			l-4.3-10.8c-0.1-0.3-0.4-0.5-0.7-0.4c-0.3,0-0.6,0.2-0.7,0.4L237.6,134.9z"/>
		<path id="Path_7" class="st8" d="M227.2,121.4v13.3h-2.5v-13.3H227.2z"/>
	</g>
	<g id="Group_62" class="st9">
		<path id="Path_67-2" class="st10" d="M78.9,229.7h156.8L381.1,8.8H245.3C189.8,82.4,134.4,156.1,78.9,229.7z"/>
	</g>
</g>
</svg>
