<?xml version="1.0" encoding="utf-8"?>
<!-- Generator: Adobe Illustrator 25.4.7, SVG Export Plug-In . SVG Version: 6.00 Build 0)  -->
<svg version="1.1" id="Layer_1" xmlns="http://www.w3.org/2000/svg" xmlns:xlink="http://www.w3.org/1999/xlink" x="0px" y="0px"
	 viewBox="0 0 460 310" style="enable-background:new 0 0 460 310;" xml:space="preserve">
<style type="text/css">
	.st0{fill:url(#Path_66_00000181789329850414083080000017561987046741029021_);}
	.st1{fill:#333333;}
	.st2{fill:#DCDCDC;}
	.st3{fill:#EE6C4A;}
	.st4{opacity:0.4;}
	.st5{fill:#FFFEF9;}
</style>
<linearGradient id="Path_66_00000090278717078361466950000010813201443512690593_" gradientUnits="userSpaceOnUse" x1="-873.9246" y1="-6176.6035" x2="-873.9246" y2="-6175.6035" gradientTransform="matrix(190.88 0 0 130.34 167036.3906 805235.25)">
	<stop  offset="0" style="stop-color:#FFFFFF"/>
	<stop  offset="0.49" style="stop-color:#51514F"/>
	<stop  offset="0.61" style="stop-color:#FFFFFF"/>
	<stop  offset="0.69" style="stop-color:#626261"/>
	<stop  offset="0.77" style="stop-color:#474746"/>
	<stop  offset="0.92" style="stop-color:#141414"/>
	<stop  offset="1" style="stop-color:#000000"/>
</linearGradient>
<path id="Path_66" style="fill:url(#Path_66_00000090278717078361466950000010813201443512690593_);" d="M126.2,304.7
	c58.3-48.8,66.3-76.8,61.5-93.6c-2.2-7.5-6.8-12.2-4.6-18.4c8.1-23,92.5-19.9,96.3-3.7c1.7,7.2-13.9,10.9-19.3,24.8
	c-9.7,25,22,61.4,56.9,92.7L126.2,304.7z"/>
<path id="Rectangle_28" class="st1" d="M10.1,3.5h439.8c4.9,0,8.9,4,8.9,8.9v213.8c0,4.9-4,8.9-8.9,8.9H10.1c-4.9,0-8.9-4-8.9-8.9
	V12.4C1.2,7.5,5.2,3.5,10.1,3.5z"/>
<path id="Rectangle_29" class="st2" d="M18.2,8.8h423.6c4.9,0,8.9,4,8.9,8.9v203.2c0,4.9-4,8.9-8.9,8.9H18.2c-4.9,0-8.9-4-8.9-8.9
	V17.7C9.3,12.8,13.3,8.8,18.2,8.8z"/>
<g id="Layer_2-2">
	<g id="Layer_1-2">
		<path id="Path_111" class="st3" d="M157.4,87.6c-4.7,25.1-9.5,50.1-14.2,75.1c-4.7,2.5-7,3.8-11.6,6.5c5.5-26.5,10.9-53,16.4-79.5
			c-4.9,1.3-7.4,2-12.3,3.5c1.7-7.8,2.6-11.7,4.3-19.5c10.7-2.1,21.5-3.5,32.3-4.4c-1,6.4-1.5,9.6-2.5,15.9
			C164.9,86.2,162.4,86.6,157.4,87.6z"/>
		<path id="Path_112" class="st3" d="M174,69.4c3.6-0.2,5.4-0.2,8.9-0.2l-9.7,79.8c-4.9,1.9-7.4,3-12.2,5.1L174,69.4z"/>
		<path id="Path_113" class="st3" d="M221.7,73.3c2.5,20,5,40,7.5,60c-5.6,1-8.4,1.5-13.9,2.8c-9-13.2-15.5-28.1-20.5-43.2
			c-1,16.5-2,33-3,49.6c-4.7,1.5-7.1,2.3-11.7,4l7.8-77.1c3.8,0.1,5.7,0.2,9.5,0.5c4.7,15.8,10.1,31.3,18.6,45.5
			c-0.8-14.5-1.6-29-2.4-43.6C216.8,72.3,218.4,72.6,221.7,73.3z"/>
		<path id="Path_114" class="st3" d="M254,83.1l4.9,8.7c-6.9-2.1-14-3.8-21.1-5l3,11.1c6.4,0.5,12.7,1.4,19,2.6l4.5,9
			c-6.9-0.8-13.8-1.2-20.7-1.3c1.3,4.9,2,7.4,3.3,12.3c9.4-0.5,18.7-0.5,28.1,0.1l4.9,8.7c-14.5,0.2-29,1.2-43.4,3l-10-57.8
			C235.8,76.5,245.1,79.5,254,83.1z"/>
		<path id="Path_115" class="st3" d="M280.3,99.2c-6.3-2.7-12.7-5-19.3-7l-5-8.4c9.4,3.8,18.4,8.4,27,13.8l7,5.5
			c4.3,5.6,4.6,9.2,2.1,18.9c9.4,1.1,18.6,2.6,27.8,4.8l8.5,6.7c-15.6-2.7-31.3-4.2-47.1-4.3c-1.6-2.8-2.4-4.2-4-7
			C281.6,110.7,282.4,106.2,280.3,99.2z"/>
	</g>
</g>
<g id="Group_62-3" class="st4">
	<path id="Path_67-4" class="st5" d="M70.6,229.7h156.8L372.8,8.8H237L70.6,229.7z"/>
</g>
</svg>
