<?xml version="1.0" encoding="utf-8"?>
<!-- Generator: Adobe Illustrator 25.4.7, SVG Export Plug-In . SVG Version: 6.00 Build 0)  -->
<svg version="1.1" id="Layer_1" xmlns="http://www.w3.org/2000/svg" xmlns:xlink="http://www.w3.org/1999/xlink" x="0px" y="0px"
	 viewBox="0 0 460 310" style="enable-background:new 0 0 460 310;" xml:space="preserve">
<style type="text/css">
	.st0{fill:url(#Path_66-2_00000053518153922941251900000018241522419590328502_);}
	.st1{fill:#333333;}
	.st2{fill:#DCDCDC;}
	.st3{fill:url(#Path_69_00000009552489096791510060000010821751239618011543_);}
	.st4{fill:url(#Path_70_00000145019846365484547600000001168876834327902619_);}
	.st5{fill:url(#Rectangle_35_00000027589943559127126900000008099092980069657498_);}
	.st6{fill:url(#Rectangle_36_00000171722071412974629710000000964994881587724696_);}
	.st7{fill:#7A7A7A;}
	.st8{fill:url(#Ellipse_10_00000081606080043043834050000010699011573557043882_);}
	.st9{fill:url(#Ellipse_11_00000034057090505080106430000009962336249896957060_);}
	.st10{fill:url(#Ellipse_12_00000119079069107191692230000001392308573799494584_);}
	.st11{fill:url(#Ellipse_13_00000026151397668066364570000000969200797227015575_);}
	.st12{fill:url(#Path_75_00000120556113096539745770000011393428690576333487_);}
	.st13{fill:url(#Path_76_00000121244507550048158150000016723697859553845907_);}
	.st14{fill:url(#Path_77_00000130635798754074415910000001134946626792516262_);}
	.st15{fill:url(#Path_78_00000159470897299834954890000001106516468068430241_);}
	.st16{fill:none;stroke:#7A7A7A;stroke-width:1.5;stroke-miterlimit:10;}
	.st17{fill:url(#Ellipse_15_00000120544545653166304860000000980938965805251470_);}
	.st18{fill:url(#Ellipse_16_00000130637294144780391510000000929795391040466825_);}
	.st19{fill:url(#Ellipse_17_00000161595384653988575920000010997519834689729681_);}
	.st20{fill:url(#Ellipse_18_00000004539397533476747180000011997915247397149864_);}
	.st21{opacity:0.4;}
	.st22{fill:#FFFEF9;}
</style>
<g id="Group_68">
	
		<linearGradient id="Path_66-2_00000058577461873365769050000009260111367774867639_" gradientUnits="userSpaceOnUse" x1="-873.9246" y1="-6809.2539" x2="-873.9246" y2="-6808.2539" gradientTransform="matrix(190.88 0 0 130.34 167036.3906 887674.625)">
		<stop  offset="0" style="stop-color:#FFFFFF"/>
		<stop  offset="0.6177" style="stop-color:#51514F"/>
		<stop  offset="0.7281" style="stop-color:#FFFFFF"/>
		<stop  offset="0.8211" style="stop-color:#626261"/>
		<stop  offset="0.8876" style="stop-color:#474746"/>
		<stop  offset="0.9553" style="stop-color:#141414"/>
		<stop  offset="1" style="stop-color:#000000"/>
	</linearGradient>
	<path id="Path_66-2" style="fill:url(#Path_66-2_00000058577461873365769050000009260111367774867639_);" d="M126.2,304.7
		c58.3-48.8,66.3-76.8,61.5-93.6c-2.2-7.5-6.8-12.2-4.6-18.4c8.1-23,92.5-19.9,96.3-3.7c1.7,7.2-13.9,10.9-19.3,24.8
		c-9.7,25,22,61.4,56.9,92.7L126.2,304.7z"/>
	<path id="Rectangle_28-2" class="st1" d="M10.1,3.5h439.8c4.9,0,8.9,4,8.9,8.9v213.8c0,4.9-4,8.9-8.9,8.9H10.1
		c-4.9,0-8.9-4-8.9-8.9V12.4C1.2,7.5,5.2,3.5,10.1,3.5z"/>
	<path id="Rectangle_29-2" class="st2" d="M18.2,8.8h423.6c4.9,0,8.9,4,8.9,8.9v203.2c0,4.9-4,8.9-8.9,8.9H18.2
		c-4.9,0-8.9-4-8.9-8.9V17.7C9.3,12.8,13.3,8.8,18.2,8.8z"/>
	<g id="Group_63">
		<g id="Layer_10">
			
				<linearGradient id="Path_69_00000124848561740206562150000011824746729289171078_" gradientUnits="userSpaceOnUse" x1="-874.6508" y1="-6807.0034" x2="-873.6511" y2="-6807.0034" gradientTransform="matrix(205.98 0 0 135.34 180280.6094 921388.0625)">
				<stop  offset="1.000000e-02" style="stop-color:#FFFFFF"/>
				<stop  offset="0.13" style="stop-color:#F8F8F8"/>
				<stop  offset="0.32" style="stop-color:#E5E5E5"/>
				<stop  offset="0.54" style="stop-color:#C5C5C5"/>
				<stop  offset="0.78" style="stop-color:#9A9A9A"/>
				<stop  offset="1" style="stop-color:#6D6D6D"/>
			</linearGradient>
			<path id="Path_69" style="fill:url(#Path_69_00000124848561740206562150000011824746729289171078_);" d="M139.8,68.3
				c-2.4,1.8-7.1,6-14.4,37.9c-4.1,17-6.3,34.4-6.7,51.8c-0.3,16.4,1.2,22.4,5.3,27.4c5.7,7,16.9,12.2,22.6,8.6
				c1.4-0.9,2.1-2.1,3.4-4.8c3.4-7.3,6.5-14.9,9.1-22.6c3.4-9.8,5.2-14.7,8.2-16.8c5.1-3.7,12.1-3.8,13.9-3.8c2.8,0,5.5,0.3,8.2,1
				c7.6,1.8,10.7,0.4,33.1,0.5c24.5,0.1,26.3,1.8,32.7-0.5c3-1.2,6.3-1.7,9.6-1.4c4.1,0.5,7.9,2.1,11,4.8c2,1.8,3.9,4.2,7.2,15.8
				c3.6,12.5,3.8,17.8,8.6,24.2c2.1,2.8,3.7,3.9,5.3,4.6c6.3,2.7,13.3-1.5,14.9-2.4c2.8-1.8,5.2-4,7.2-6.7
				c9.6-13.8,4.3-51.8,4.3-51.8c-7.9-56.8-13.9-63.2-19.7-65.8c-4.5-2-12.9-3.4-18.2-4.3c-6.2-1.1-12.4-1.7-18.7-2
				c-21.4-1-32.1-1.6-45.6-1.4c-4.6,0-18.6,0.8-46.6,2.4C154.5,64.1,144.5,64.8,139.8,68.3z"/>
		</g>
		<g id="Layer_11">
			
				<linearGradient id="Path_70_00000160892180275903323820000004043490241788973237_" gradientUnits="userSpaceOnUse" x1="-873.643" y1="-6807.1831" x2="-873.633" y2="-6808.4731" gradientTransform="matrix(174.73 0 0 133.47 152873.375 908720.25)">
				<stop  offset="0" style="stop-color:#000000"/>
				<stop  offset="0.39" style="stop-color:#220F07"/>
				<stop  offset="0.81" style="stop-color:#FA6E33"/>
			</linearGradient>
			<path id="Path_70" style="fill:url(#Path_70_00000160892180275903323820000004043490241788973237_);" d="M180.6,63
				c0.4,0.1-0.8,4-0.5,9.1s1.7,5.9,4.3,13.9c3.1,9.8,2.4,12.9,5.8,15.4c2,1.5,4.1,2.1,8.2,1.9c7.8-0.3,15.7,0,23.5,0
				c19.4-0.1,21.1,0,21.1,0c7.9,0,9.2-1.2,10.1-1.9c4.2-3.2,2.5-7.9,7.2-20.7c0.7-1.8,1.1-3.3,1.9-6.2c1.5-5.2,1.7-7.1,1-9.1
				c-0.6-1.7-1.6-2.7-1.4-2.9s2,1,2.9,2.9c0.6,1.4,0.7,2.9,0.5,4.3c-0.5,3.3-1.3,6.5-2.4,9.6c-1.1,3.3-1.9,6.7-2.4,10.1
				c-0.6,3.2-0.8,6.4-0.5,9.6c1,6.3,5.5,10.3,7.7,12.5c6.9,6.7,10.6,13.8,17.3,26.4c2.8,5.4,6.8,15.9,14.9,37c0.4,1,1.2,3.1,2.4,5.8
				c2.6,5.9,5.1,10.5,6.7,13.4c-2,1.2-4.3,1.9-6.7,1.9c-1.6,0-3.3-0.4-4.8-1c-0.9-2-2.2-5.2-3.8-9.1c-2.6-6.4-4.7-11.9-8.2-20.2
				c-2.9-6.9-3.9-8.6-5.3-10.6c-1.8-2.5-4.2-5.9-8.2-7.7c-5.2-2.3-10.6-0.7-13,0c-9.7,2.7-7.8-1.1-41.3,0
				c-17.8,0.6-27.3,1.9-34.1-0.5c-2-0.8-4.1-1.1-6.2-1c-3.7,0.4-7.2,1.9-10.1,4.3c-2.7,2.2-3.7,4.3-7.2,12
				c-6.2,13.7-10.1,23-10.1,23l-3.8,9.1c-1.4,0.3-2.9,0.5-4.3,0.5c-2.7-0.1-5.3-0.7-7.7-1.9c2.4-2.7,4.5-5.6,6.2-8.6
				c3.4-5.9,4-10,6.2-17.3c2.8-9.1,5.5-17.8,10.1-27.8c1.9-4.5,4.1-8.9,6.7-13c2.3-3.5,5.2-7.2,11-14.4c6.1-7.6,6.2-7.4,6.7-8.6
				c2.8-6.8,0.8-14.5-1-21.1c-1.2-4.6-2.5-7.4-1.9-12C178.7,66.3,180.2,62.9,180.6,63z"/>
		</g>
		<g id="Layer_12">
			
				<linearGradient id="Rectangle_35_00000113311803964235555000000000747189790945723550_" gradientUnits="userSpaceOnUse" x1="-838.6425" y1="-7490.1406" x2="-837.6422" y2="-7490.1406" gradientTransform="matrix(30.58 -2.92 0.82 8.6 31929.0996 62028.5625)">
				<stop  offset="0" style="stop-color:#000000"/>
				<stop  offset="1" style="stop-color:#575757"/>
			</linearGradient>
			<path id="Rectangle_35" style="fill:url(#Rectangle_35_00000113311803964235555000000000747189790945723550_);" d="M149.8,57
				l14.5-1.4c4.8-0.4,9,3,9.4,7.8l0,0l-30.6,2.9l0,0l-0.1-1.1C142.7,61.1,145.7,57.5,149.8,57C149.8,57.1,149.8,57.1,149.8,57z"/>
			
				<linearGradient id="Rectangle_36_00000147178892131727598870000008967586743004695708_" gradientUnits="userSpaceOnUse" x1="-868.9475" y1="-6016.542" x2="-867.9479" y2="-6016.542" gradientTransform="matrix(-30.46 -4.02 1.13 -8.57 -19375.3281 -54992.8984)">
				<stop  offset="0" style="stop-color:#000000"/>
				<stop  offset="1" style="stop-color:#575757"/>
			</linearGradient>
			<path id="Rectangle_36" style="fill:url(#Rectangle_36_00000147178892131727598870000008967586743004695708_);" d="M300,67.2
				l-30.5-4l0,0c0.6-4.7,5-8.1,9.7-7.4l14.5,1.9c4.1,0.5,7,4.3,6.5,8.4l0,0L300,67.2z"/>
		</g>
		<g id="Layer_13">
			<path id="Path_71" class="st7" d="M156.7,94.2c-2.3-0.2-3.6-2.8-4.5-4.5c-0.8-1.5-2.8-5.3-1-8.1c1.2-1.9,3.7-2.3,5-2.5
				s4.2-0.7,6,1c2.5,2.2,1.6,6.6,0.5,9.1C161.9,91,159.5,94.5,156.7,94.2z"/>
			<path id="Path_72" class="st7" d="M160.2,97.2c0-3.2,4-5.1,5-5.5s5.9-2.8,9.1,0c2.6,2.6,2.8,6.7,0.5,9.6
				c-2.9,3.5-8.1,1.8-9.1,1.5C165.4,102.6,160.2,100.7,160.2,97.2z"/>
			<path id="Path_73" class="st7" d="M154.8,95.6c-0.3-2.3-2.8-3.6-4.6-4.5c-1.5-0.8-5.3-2.8-8.1-0.9c-1.9,1.2-2.3,3.7-2.5,5
				s-0.6,4.2,1.1,6c2.2,2.5,6.6,1.6,9.1,0.4C151.6,100.8,155.1,98.5,154.8,95.6z"/>
			<path id="Path_74" class="st7" d="M157.8,99.1c-3.1,0-5,4.1-5.5,5.1c-0.5,1.2-2.8,5.9,0.1,9.1c2.6,2.6,6.7,2.7,9.6,0.4
				c3.5-3,1.8-8.1,1.4-9.1C163.2,104.3,161.3,99.1,157.8,99.1z"/>
			<circle id="Ellipse_6" class="st7" cx="273.5" cy="97.8" r="6.9"/>
			<circle id="Ellipse_7" class="st7" cx="287.9" cy="114.2" r="6.9"/>
			<circle id="Ellipse_8" class="st7" cx="287.9" cy="82.9" r="6.9"/>
			<circle id="Ellipse_9" class="st7" cx="302.8" cy="98.3" r="6.9"/>
			
				<linearGradient id="Ellipse_10_00000007415624602349271950000003395217032699622272_" gradientUnits="userSpaceOnUse" x1="-830.7118" y1="-7253.0664" x2="-831.7018" y2="-7253.1963" gradientTransform="matrix(12.96 0 0 12.96 11048.3203 94098.2266)">
				<stop  offset="3.000000e-02" style="stop-color:#7A7A7A"/>
				<stop  offset="1" style="stop-color:#FFFFFF"/>
			</linearGradient>
			
				<circle id="Ellipse_10" style="fill:url(#Ellipse_10_00000007415624602349271950000003395217032699622272_);" cx="273.5" cy="97.3" r="6.5"/>
			
				<linearGradient id="Ellipse_11_00000040538126357743820260000013751880880857851807_" gradientUnits="userSpaceOnUse" x1="-830.7118" y1="-7253.0664" x2="-831.7018" y2="-7253.1963" gradientTransform="matrix(12.96 0 0 12.96 11062.7197 94114.5469)">
				<stop  offset="3.000000e-02" style="stop-color:#7A7A7A"/>
				<stop  offset="1" style="stop-color:#FFFFFF"/>
			</linearGradient>
			
				<circle id="Ellipse_11" style="fill:url(#Ellipse_11_00000040538126357743820260000013751880880857851807_);" cx="287.9" cy="113.7" r="6.5"/>
			
				<linearGradient id="Ellipse_12_00000077310517171810183130000017150101083536300977_" gradientUnits="userSpaceOnUse" x1="-830.7119" y1="-7253.0664" x2="-831.7018" y2="-7253.1963" gradientTransform="matrix(12.96 0 0 12.96 11062.7197 94083.3438)">
				<stop  offset="3.000000e-02" style="stop-color:#7A7A7A"/>
				<stop  offset="1" style="stop-color:#FFFFFF"/>
			</linearGradient>
			
				<circle id="Ellipse_12" style="fill:url(#Ellipse_12_00000077310517171810183130000017150101083536300977_);" cx="287.9" cy="82.4" r="6.5"/>
			
				<linearGradient id="Ellipse_13_00000155858634150280934700000005155002057899447472_" gradientUnits="userSpaceOnUse" x1="-830.7119" y1="-7253.0664" x2="-831.7018" y2="-7253.1963" gradientTransform="matrix(12.96 0 0 12.96 11077.5996 94098.7031)">
				<stop  offset="3.000000e-02" style="stop-color:#7A7A7A"/>
				<stop  offset="1" style="stop-color:#FFFFFF"/>
			</linearGradient>
			
				<circle id="Ellipse_13" style="fill:url(#Ellipse_13_00000155858634150280934700000005155002057899447472_);" cx="302.8" cy="97.8" r="6.5"/>
			
				<linearGradient id="Path_75_00000030477267026888003470000002591738647252688810_" gradientUnits="userSpaceOnUse" x1="-830.2838" y1="-7195.4678" x2="-831.2738" y2="-7195.5776" gradientTransform="matrix(12.78 0 0 14.63 10773.96 105356.625)">
				<stop  offset="3.000000e-02" style="stop-color:#7A7A7A"/>
				<stop  offset="1" style="stop-color:#FFFFFF"/>
			</linearGradient>
			<path id="Path_75" style="fill:url(#Path_75_00000030477267026888003470000002591738647252688810_);" d="M156.6,93.6
				c-2.2-0.2-3.4-2.6-4.3-4.3c-0.8-1.5-2.7-5.1-1-7.7c1.2-1.8,3.5-2.2,4.8-2.4s4-0.6,5.8,1c2.4,2.1,1.6,6.3,0.5,8.6
				C161.5,90.5,159.3,93.9,156.6,93.6z"/>
			
				<linearGradient id="Path_76_00000046337386116840921390000013784416366099140028_" gradientUnits="userSpaceOnUse" x1="-838.161" y1="-7269.3115" x2="-839.151" y2="-7269.4717" gradientTransform="matrix(15.43 0 0 12.52 13109.1006 91108.8281)">
				<stop  offset="3.000000e-02" style="stop-color:#7A7A7A"/>
				<stop  offset="1" style="stop-color:#FFFFFF"/>
			</linearGradient>
			<path id="Path_76" style="fill:url(#Path_76_00000046337386116840921390000013784416366099140028_);" d="M159.9,96.4
				c0-3,3.8-4.8,4.8-5.3s5.6-2.7,8.6,0c2.5,2.5,2.7,6.4,0.5,9.1c-2.8,3.3-7.7,1.8-8.6,1.4C164.9,101.6,160,99.8,159.9,96.4z"/>
			
				<linearGradient id="Path_77_00000000183062661113965780000002546893408547966368_" gradientUnits="userSpaceOnUse" x1="-836.5635" y1="-7259.3433" x2="-836.5635" y2="-7258.3428" gradientTransform="matrix(14.62 0 0 12.78 12378.0098 92880.8203)">
				<stop  offset="0" style="stop-color:#FFFFFF"/>
				<stop  offset="1" style="stop-color:#696969"/>
			</linearGradient>
			<path id="Path_77" style="fill:url(#Path_77_00000000183062661113965780000002546893408547966368_);" d="M154.7,95
				c-0.2-2.2-2.7-3.4-4.4-4.3c-1.5-0.8-5.1-2.6-7.7-0.9c-1.8,1.2-2.2,3.5-2.4,4.8s-0.6,4,1,5.8c2.1,2.3,6.3,1.5,8.6,0.4
				C151.7,99.9,155.1,97.7,154.7,95z"/>
			
				<linearGradient id="Path_78_00000084512289402900685880000010525271020232237444_" gradientUnits="userSpaceOnUse" x1="-829.7689" y1="-7173.5293" x2="-829.7689" y2="-7172.5298" gradientTransform="matrix(12.51 0 0 15.44 10537.7998 110834.2812)">
				<stop  offset="0" style="stop-color:#7A7A7A"/>
				<stop  offset="0" style="stop-color:#FFFFFF"/>
				<stop  offset="1" style="stop-color:#7A7A7A"/>
				<stop  offset="1" style="stop-color:#FFFFFF"/>
			</linearGradient>
			<path id="Path_78" style="fill:url(#Path_78_00000084512289402900685880000010525271020232237444_);" d="M157.6,98.3
				c-3,0-4.8,3.9-5.2,4.8s-2.6,5.7,0.1,8.6c2.5,2.4,6.4,2.6,9.1,0.4c3.3-2.8,1.7-7.7,1.4-8.7C162.8,103.2,161,98.3,157.6,98.3z"/>
		</g>
		<g id="Layer_14">
			<circle id="Ellipse_14" class="st16" cx="303.3" cy="97.3" r="3.1"/>
			<line id="Line_4" class="st16" x1="284.8" y1="111" x2="291.5" y2="116.3"/>
			<line id="Line_5" class="st16" x1="290.9" y1="110.9" x2="284.8" y2="116.9"/>
			<rect id="Rectangle_37" x="269.7" y="93.5" class="st16" width="7.7" height="7.2"/>
			<path id="Path_79" class="st16" d="M284.3,85.6l3.6-7.4l4.1,7.4H284.3z"/>
		</g>
		<g id="Layer_15">
			
				<radialGradient id="Ellipse_15_00000001646616538898899340000002417050831992704957_" cx="-861.2189" cy="-6930.1738" r="0.5" gradientTransform="matrix(37.44 0 0 37.44 32499.0098 259609.3594)" gradientUnits="userSpaceOnUse">
				<stop  offset="0.46" style="stop-color:#000000"/>
				<stop  offset="0.7" style="stop-color:#343434"/>
				<stop  offset="1" style="stop-color:#000000"/>
			</radialGradient>
			
				<circle id="Ellipse_15" style="fill:url(#Ellipse_15_00000001646616538898899340000002417050831992704957_);" cx="254.6" cy="128.3" r="18.7"/>
			
				<radialGradient id="Ellipse_16_00000176766037841030960780000008633189435426139528_" cx="-851.8651" cy="-7030.9932" r="0.5" gradientTransform="matrix(23.52 0 0 23.52 20291.0195 165512.0625)" gradientUnits="userSpaceOnUse">
				<stop  offset="0.46" style="stop-color:#000000"/>
				<stop  offset="0.7" style="stop-color:#343434"/>
				<stop  offset="1" style="stop-color:#000000"/>
			</radialGradient>
			
				<circle id="Ellipse_16" style="fill:url(#Ellipse_16_00000176766037841030960780000008633189435426139528_);" cx="254.8" cy="127.6" r="11.8"/>
			
				<radialGradient id="Ellipse_17_00000147911551218979263930000011863609975410972297_" cx="-861.2189" cy="-6930.1738" r="0.5" gradientTransform="matrix(37.44 0 0 37.44 32432.7598 259609.3594)" gradientUnits="userSpaceOnUse">
				<stop  offset="0.46" style="stop-color:#000000"/>
				<stop  offset="0.7" style="stop-color:#343434"/>
				<stop  offset="1" style="stop-color:#000000"/>
			</radialGradient>
			
				<circle id="Ellipse_17" style="fill:url(#Ellipse_17_00000147911551218979263930000011863609975410972297_);" cx="188.3" cy="128.3" r="18.7"/>
			
				<radialGradient id="Ellipse_18_00000160158889721366639130000010034949906380477842_" cx="-851.8651" cy="-7030.9932" r="0.5" gradientTransform="matrix(23.52 0 0 23.52 20224.7695 165512.0625)" gradientUnits="userSpaceOnUse">
				<stop  offset="0.46" style="stop-color:#000000"/>
				<stop  offset="0.7" style="stop-color:#343434"/>
				<stop  offset="1" style="stop-color:#000000"/>
			</radialGradient>
			
				<circle id="Ellipse_18" style="fill:url(#Ellipse_18_00000160158889721366639130000010034949906380477842_);" cx="188.6" cy="127.6" r="11.8"/>
		</g>
	</g>
	<g id="Group_64" class="st21">
		<path id="Path_67" class="st22" d="M58.9,229.7h156.8L361.1,8.8H225.3C169.8,82.4,114.3,156.1,58.9,229.7z"/>
	</g>
</g>
</svg>
