<?xml version="1.0" encoding="utf-8"?>
<!-- Generator: Adobe Illustrator 25.4.7, SVG Export Plug-In . SVG Version: 6.00 Build 0)  -->
<svg version="1.1" id="Layer_1" xmlns="http://www.w3.org/2000/svg" xmlns:xlink="http://www.w3.org/1999/xlink" x="0px" y="0px"
	 viewBox="0 0 460 310" style="enable-background:new 0 0 460 310;" xml:space="preserve">
<style type="text/css">
	.st0{fill:url(#Path_66-4_00000149373080354870654550000012236625163015636395_);}
	.st1{fill:#333333;}
	.st2{fill:#DCDCDC;}
	.st3{opacity:0.3;}
	.st4{fill:none;stroke:#1D1D1B;stroke-width:5;stroke-miterlimit:10;}
	.st5{fill:none;stroke:#1D1D1B;stroke-width:3;stroke-miterlimit:10;}
	.st6{fill:#010101;}
	.st7{fill:none;stroke:#010101;stroke-width:2;stroke-miterlimit:10;}
	.st8{opacity:0.4;}
	.st9{fill:#FFFEF9;}
</style>
<g id="Group_70">
	
		<linearGradient id="Path_66-4_00000101075826324467871440000018348655730013034685_" gradientUnits="userSpaceOnUse" x1="-1484.5923" y1="-6809.0825" x2="-1484.5923" y2="-6808.0825" gradientTransform="matrix(190.88 0 0 130.34 283600.6562 887674.5625)">
		<stop  offset="0" style="stop-color:#FFFFFF"/>
		<stop  offset="0.49" style="stop-color:#51514F"/>
		<stop  offset="0.61" style="stop-color:#FFFFFF"/>
		<stop  offset="0.69" style="stop-color:#626261"/>
		<stop  offset="0.77" style="stop-color:#474746"/>
		<stop  offset="0.92" style="stop-color:#141414"/>
		<stop  offset="1" style="stop-color:#000000"/>
	</linearGradient>
	<path id="Path_66-4" style="fill:url(#Path_66-4_00000101075826324467871440000018348655730013034685_);" d="M126.2,304.7
		c58.3-48.8,66.3-76.8,61.5-93.6c-2.2-7.5-6.8-12.2-4.6-18.4c8.1-23,92.5-19.9,96.3-3.7c1.7,7.2-13.9,10.9-19.3,24.8
		c-9.7,25,22,61.4,56.9,92.7L126.2,304.7z"/>
	<path id="Rectangle_28-4" class="st1" d="M10.1,3.5h439.8c4.9,0,8.9,4,8.9,8.9v213.8c0,4.9-4,8.9-8.9,8.9H10.1
		c-4.9,0-8.9-4-8.9-8.9V12.4C1.2,7.5,5.2,3.5,10.1,3.5z"/>
	<path id="Rectangle_29-4" class="st2" d="M18.2,8.8h423.6c4.9,0,8.9,4,8.9,8.9v203.2c0,4.9-4,8.9-8.9,8.9H18.2
		c-4.9,0-8.9-4-8.9-8.9V17.7C9.3,12.8,13.3,8.8,18.2,8.8z"/>
	<g id="logo_sort_hvid">
		<g id="Layer_2_00000095322690506399271570000001739644744554185866_">
			<g id="Group_69" class="st3">
				<circle id="Ellipse_20" class="st4" cx="223.6" cy="123.3" r="69"/>
				<path id="Path_88" class="st4" d="M154.6,123.3c19.3-14.2,33.3-15.3,42.5-13.6c23.7,4.2,30.3,29.2,54.8,33.9
					c15.6,3,30.2-3.8,40-9.9"/>
				<path id="Path_89" class="st4" d="M157.2,141.9c11.5-9.6,28.5-20.5,46.2-17c20.5,4.1,26.2,24.7,46.1,27.6
					c15.5,2.3,30.5-7.5,42.5-18.9"/>
				<path id="Path_90" class="st4" d="M163.6,157.4c9.1-8.5,21.9-17.4,36.6-16.4c20.9,1.5,28.3,22.8,46.9,24.2
					c9.7,0.7,24.7-3.8,44.8-31.5"/>
				<path id="Path_91" class="st4" d="M201.3,188.6c-8.2-2.4-14-8.4-14.8-15.3c-0.9-7.5,4.4-15.2,10.6-17.6
					c15.3-6,29.2,22.4,50,22.3c11-0.1,26.3-8,44.8-44.2"/>
				<path id="Path_92" class="st4" d="M204.9,189.7c5.3,1.5,10.8-0.7,13-5s1.1-11.1-3.2-13c-4.1-1.8-10.2,0.9-10.9,4.9
					c-0.6,3.5,2.9,8,5.5,7.5c1.7-0.4,3.1-2.8,3.4-6"/>
			</g>
		</g>
		<g id="Layer_1-2">
			<circle id="Ellipse_21" class="st5" cx="222.6" cy="121.4" r="69"/>
			<path id="Path_93" class="st6" d="M127.2,107.1c-0.3,2.8,1,5.6,5.4,6c3.7,0.4,5.7-2,6-5c0.1-1.5-0.4-3-1.4-4.1
				c-0.1-0.1-0.2-0.2-0.1-0.4c0-0.2,0.2-0.4,0.4-0.4c0,0,0,0,0,0l0,0c0.2,0.1,0.4,0.2,0.6,0.4c1.1,1.3,1.7,3,1.5,4.7
				c-0.4,3.5-2.8,6.2-7,5.8c-4.9-0.5-6.6-3.9-6.3-7.2c0.2-2.5,1.8-4.1,3.6-4c0.8,0.1,1.4,0.5,1.3,0.9s-0.2,0.4-0.4,0.4
				s-0.2-0.2-0.9-0.3C128.4,103.9,127.4,105.3,127.2,107.1z"/>
			<path id="Path_94" class="st6" d="M142.2,80.7l3.8,2c0,0,0.4,0.2,0.1,0.6s-0.6,0.3-0.6,0.3l-10.8-5.7c0,0-0.4-0.2-0.1-0.7
				s0.6-0.3,0.6-0.3l6.1,3.3l4-7.5l-6.1-3.3c0,0-0.4-0.2-0.1-0.7s0.6-0.3,0.6-0.3l10.8,5.8c0,0,0.4,0.2,0.1,0.7s-0.6,0.3-0.6,0.3
				l-3.8-2L142.2,80.7z"/>
			<path id="Path_95" class="st6" d="M163.3,55.2L164,58c0,0.2,0.1,0.4-0.3,0.7c-0.2,0.2-0.4,0.2-0.6,0l0,0c0-0.1-0.1-0.1-0.1-0.2
				l-3.4-12.8c-0.1-0.3-0.1-0.6,0.2-0.8c0.2-0.2,0.5-0.2,0.8-0.1l12,5.8c0.1,0,0.1,0.1,0.2,0.2c0.1,0.1,0.2,0.3-0.1,0.5
				c-0.2,0.2-0.4,0.2-0.7,0.1l-2.6-1.2L163.3,55.2z M163,54.2l5.6-4.6l-7.9-3.8L163,54.2z"/>
			<path id="Path_96" class="st6" d="M199.4,37.5c0.1,0,0.3,0.1,0.3,0.2c0.1,0.4-0.3,0.9-1,1.1c-1.5,0.5-3.5-2.4-5.8-2.8
				c-0.5,0.3-1,0.5-1.6,0.7c-0.4,0.2-0.6,0-0.7-0.2s0-0.5,0.2-0.6c2.8-0.9,5.1-2.9,4.3-5.4s-2.8-2.3-5.9-1.3l-1.3,0.4l3.6,11.1
				c0,0,0.1,0.4-0.4,0.5s-0.6-0.2-0.6-0.2l-3.8-11.7c-0.1-0.2,0-0.4,0.2-0.4c0,0,0,0,0,0l0,0l2-0.6c3.6-1.2,6.2-1.1,7.1,1.9
				c0.7,2-0.4,3.9-2.1,5.1c2,0.7,3.7,2.7,4.7,2.4C199,37.7,199.2,37.6,199.4,37.5z"/>
			<path id="Path_97" class="st6" d="M227.6,35.4c0.2,0,0.4,0.2,0.4,0.5l0,0c0,0.2-0.2,0.4-0.4,0.5c0,0,0,0,0,0l-7.3-0.3
				c-0.2,0-0.3-0.2-0.3-0.3l0.5-12.3c0,0,0-0.4,0.5-0.4s0.5,0.4,0.5,0.4L221,35.2L227.6,35.4z"/>
			<path id="Path_98" class="st6" d="M248.9,34.2c1.4-3.2,5.2-4.7,8.5-3.2c2.9,1.3,4.4,4.5,3.5,7.6c-0.1,0.2-0.2,0.5-0.3,0.7
				c-1,3.4-4.5,5.4-7.9,4.4c-3.4-1-5.4-4.5-4.4-7.9c0.1-0.3,0.2-0.6,0.3-0.9C248.7,34.7,248.8,34.5,248.9,34.2z M259.7,38.9
				c1.4-2.7,0.3-5.9-2.4-7.3c-0.1,0-0.2-0.1-0.3-0.1c-2.8-1.4-6.3-0.3-7.7,2.5c-1.4,2.8-0.3,6.3,2.5,7.7c2.8,1.4,6.3,0.3,7.7-2.5
				L259.7,38.9z"/>
			<path id="Path_99" class="st6" d="M286,51.2l-8.2,8.3c0,0-0.3,0.3-0.6-0.1s-0.1-0.7-0.1-0.7l8.2-8.3l-2.8-2.8
				c-0.2-0.2-0.2-0.4,0-0.6c0,0,0,0,0,0l0,0c0.1-0.2,0.4-0.2,0.6-0.1l0,0l6.4,6.3c0.2,0.2,0.2,0.4,0,0.6l0,0
				c-0.1,0.2-0.4,0.2-0.6,0.1c0,0,0,0,0,0l0,0L286,51.2z"/>
			<path id="Path_100" class="st6" d="M304.9,78.1l-10.5,5c0,0-0.4,0.2-0.6-0.3s0.1-0.6,0.1-0.6l10.6-5l-1.7-3.6
				c-0.1-0.2,0-0.5,0.2-0.6c0,0,0,0,0,0l0,0c0.2-0.1,0.4-0.1,0.6,0.1l0,0l3.8,8.1c0.1,0.2,0,0.5-0.2,0.6l0,0
				c-0.2,0.1-0.4,0.1-0.6-0.1c0,0,0,0,0,0l0,0L304.9,78.1z"/>
			<path id="Path_101" class="st6" d="M302.5,114.8c0,0.3-0.3,0.5-0.5,0.4c-0.2,0-0.4-0.2-0.4-0.3l-0.7-7.9c0-0.2,0.1-0.3,0.2-0.4
				c0,0,0,0,0,0l0,0l12.3-1c0.2,0,0.4,0.1,0.4,0.3l0.6,7.4c0,0.2-0.2,0.4-0.4,0.4c-0.2,0-0.5-0.1-0.5-0.3l-0.6-6.8l-6.4,0.5l0.5,5.8
				c0,0.2-0.2,0.4-0.4,0.4c-0.2,0-0.5-0.1-0.5-0.3l-0.5-5.8l-3.7,0.3L302.5,114.8z"/>
			<path id="Path_102" class="st6" d="M166.7,192l-1,10.9l8.6-7.9c0.2-0.2,0.5-0.2,0.7-0.1c0.2,0.1,0.3,0.3,0.2,0.5c0,0,0,0,0,0l0,0
				c-0.1,0.1-0.1,0.2-0.2,0.3l-9.6,8.8c-0.1,0.1-0.3,0.2-0.5,0.1c-0.2-0.1-0.3-0.2-0.3-0.4l1-11.3l-8.4,7.5c-0.1,0.1-0.3,0.1-0.5,0
				c-0.2,0-0.3-0.2-0.3-0.4l1.3-13c0-0.1,0-0.2,0.1-0.2c0.1-0.2,0.4-0.3,0.6-0.2c0,0,0,0,0,0l0,0c0.2,0.1,0.4,0.3,0.3,0.7l-1.2,11.7
				l8.3-7.4c0.2-0.1,0.4-0.1,0.5,0C166.5,191.7,166.6,191.8,166.7,192L166.7,192z"/>
			<path id="Path_103" class="st6" d="M198.8,211.4l-1.4,2.4c-0.1,0.2-0.2,0.3-0.6,0.3c-0.2,0-0.4-0.2-0.4-0.4c0,0,0,0,0-0.1
				c0-0.1,0-0.1,0.1-0.2l6.9-11.3c0.2-0.3,0.3-0.5,0.7-0.4c0.3,0,0.5,0.2,0.6,0.5l4.1,12.6c0,0.1,0,0.2,0,0.2c0,0.1,0,0.3-0.5,0.3
				c-0.3,0-0.5-0.2-0.6-0.4l-0.9-2.7L198.8,211.4z M199.3,210.5l7.2,0.8l-2.7-8.3L199.3,210.5z"/>
			<path id="Path_104" class="st6" d="M237.7,209.2l0.9,4.2c0,0,0.1,0.4-0.4,0.5s-0.6-0.3-0.6-0.3l-2.5-12c0,0-0.1-0.4,0.4-0.5
				s0.6,0.3,0.6,0.3l1.4,6.8l8.3-1.7l-1.4-6.8c0,0-0.1-0.4,0.4-0.5s0.6,0.3,0.6,0.3l2.5,12c0,0,0.1,0.4-0.4,0.5s-0.6-0.3-0.6-0.3
				l-0.9-4.2L237.7,209.2z"/>
			<path id="Path_105" class="st6" d="M281.9,196.4c0.2-0.1,0.4,0,0.6,0.2c0,0,0,0,0,0l0,0c0.1,0.2,0.1,0.4-0.1,0.6c0,0,0,0,0,0l0,0
				l-6.3,3.6c-0.2,0.1-0.4,0.1-0.5-0.1c0,0,0,0,0,0l0,0l-6.1-10.6c0,0-0.2-0.4,0.3-0.6s0.6,0.1,0.6,0.1l5.8,10.1L281.9,196.4z"/>
			<circle id="Ellipse_22" class="st7" cx="301.4" cy="152.4" r="2.1"/>
			<circle id="Ellipse_23" class="st7" cx="139" cy="153.3" r="2.1"/>
			<path id="Path_106" class="st5" d="M153.7,121.4c19.3-14.2,33.3-15.3,42.5-13.6c23.7,4.2,30.3,29.2,54.8,34
				c15.6,3,30.2-3.8,40-9.9"/>
			<path id="Path_107" class="st5" d="M156.2,140c11.5-9.6,28.5-20.5,46.2-17c20.5,4.1,26.2,24.7,46.1,27.6
				c15.5,2.4,30.5-7.5,42.5-18.8"/>
			<path id="Path_108" class="st5" d="M162.7,155.5c9.1-8.5,21.9-17.4,36.6-16.4c20.9,1.5,28.3,22.8,47,24.2
				c9.7,0.7,24.7-3.8,44.8-31.5"/>
			<path id="Path_109" class="st5" d="M200.3,186.7c-8.2-2.4-14-8.4-14.8-15.3c-0.8-7.5,4.4-15.2,10.6-17.6
				c15.3-6,29.2,22.4,50,22.3c11-0.1,26.3-8,44.8-44.2"/>
			<path id="Path_110" class="st5" d="M203.9,187.8c5.3,1.5,10.8-0.7,13-5s1.1-11.1-3.2-13c-4.1-1.8-10.2,0.9-10.9,4.9
				c-0.6,3.5,2.9,8,5.5,7.5c1.7-0.3,3-2.8,3.4-6"/>
		</g>
	</g>
	<g id="Group_62-2" class="st8">
		<path id="Path_67-3" class="st9" d="M70.6,229.7h156.8L372.8,8.8H237L70.6,229.7z"/>
	</g>
</g>
</svg>
