<svg id="Layer_1" data-name="Layer 1" xmlns="http://www.w3.org/2000/svg" xmlns:xlink="http://www.w3.org/1999/xlink" width="1110" height="720" viewBox="0 0 1110 720"><defs><style>.cls-1{opacity:0.53;}.cls-2{fill:url(#linear-gradient);}.cls-3{fill:#333;}.cls-4{opacity:0.17;filter:url(#AI_GaussianBlur_4);}.cls-5{fill:#fff;}.cls-6{isolation:isolate;}.cls-7{fill:#353535;}</style><linearGradient id="linear-gradient" x1="3.5" y1="360" x2="1106.5" y2="360" gradientUnits="userSpaceOnUse"><stop offset="0" stop-color="#939392"/><stop offset="1"/></linearGradient><filter id="AI_GaussianBlur_4" name="AI_GaussianBlur_4"><feGaussianBlur stdDeviation="4"/></filter></defs><g class="cls-1"><rect class="cls-2" x="3.5" y="6.5" width="1103" height="707" rx="37.7"/><path class="cls-3" d="M1068.8,8.5a35.75,35.75,0,0,1,35.7,35.7V675.8a35.75,35.75,0,0,1-35.7,35.7H41.2A35.75,35.75,0,0,1,5.5,675.8V44.2A35.75,35.75,0,0,1,41.2,8.5H1068.8m0-4H41.2A39.71,39.71,0,0,0,1.5,44.2V675.8a39.71,39.71,0,0,0,39.7,39.7H1068.8a39.71,39.71,0,0,0,39.7-39.7V44.2a39.71,39.71,0,0,0-39.7-39.7Z"/></g><g class="cls-4"><path class="cls-5" d="M533.47,6.5h424l-437.43,709H63.5Z"/></g><g class="cls-6"><path class="cls-7" d="M393.26,163.65l4.3-2.25a15.07,15.07,0,0,0,13.19,8.25v-34c10.39,0,18.06,8.63,18.06,19.5s-7.67,19.43-18.06,19.43A19.72,19.72,0,0,1,393.26,163.65Zm.57-47.25h35.41l-13,15.83H393.83Z"/><path class="cls-7" d="M447.3,156V98.4h19.85V156Zm23.58,0V116.33c11,0,19.85,9.3,19.85,20.77V156Z"/><path class="cls-7" d="M515.67,116.4V156c-11,0-19.85-9.3-19.85-20.77V116.4Zm23.58,0V156H519.4V116.4Z"/><path class="cls-7" d="M545,156V116.4h19.85V156Zm30-40.8a7.13,7.13,0,1,1-6.81,7.13A7,7,0,0,1,575,115.2Z"/><path class="cls-7" d="M606.12,120.3V156c-11,0-19.85-9.3-19.85-20.77V120.3h-3.65l23.5-20.77V116.4h7.46v3.9Z"/><path class="cls-7" d="M635.22,116.4V156c-11,0-19.85-9.3-19.85-20.77V116.4Zm-8.31-20.77a7.13,7.13,0,1,1-6.81,7.12A7,7,0,0,1,626.91,95.63Z"/><path class="cls-7" d="M657.8,146.47a17,17,0,0,1-9.68-2.92,16,16,0,0,0-2.86,9.15h18.42c10.75,0,19.85,9.37,19.85,20.62a20.94,20.94,0,0,1-1.07,6.75l-4.23-2.47a17,17,0,0,0,.57-4.28H660.88c-10.75,0-20.35-9.37-20.35-20.62a21.26,21.26,0,0,1,4-12.53,15.21,15.21,0,0,1-3.15-9.29c0-8.63,7.31-15.6,16.41-15.6Zm3.73-31.19c9.1,0,16.41,7,16.41,15.6s-7.31,15.59-16.41,15.59Zm18.2-5.85a5.11,5.11,0,1,1-4.87,5.1A5,5,0,0,1,679.73,109.43Z"/><path class="cls-7" d="M702.31,151.87a15.06,15.06,0,0,0,13.19-8.25l4.3,2.25a19.7,19.7,0,0,1-17.49,10.95c-10.75,0-19.71-9.45-19.71-20.7,0-11.47,8.82-20.84,19.71-20.84ZM706,115.35c8.6,1.73,15.33,9.75,16.12,19.13H706Z"/></g><g class="cls-6"><path class="cls-7" d="M220,276.57a8.15,8.15,0,0,1-6.14-2.75,9.56,9.56,0,0,1,0-13.1,8.59,8.59,0,0,1,12.55,0,9.24,9.24,0,0,1,2.59,6.62,9,9,0,0,1-2.63,6.53A8.6,8.6,0,0,1,220,276.57Zm0-3.1a5.73,5.73,0,0,0,4.27-1.8,6,6,0,0,0,1.74-4.34,6.24,6.24,0,0,0-1.71-4.42,5.75,5.75,0,0,0-8.37,0,6.4,6.4,0,0,0,0,8.74A5.45,5.45,0,0,0,220,273.47Z"/></g><g class="cls-6"><path class="cls-7" d="M260.82,280.59a12,12,0,0,1-4.48-2.59,2,2,0,0,1-.62-1.5,1.73,1.73,0,0,1,.33-1.05,1,1,0,0,1,.78-.45,2,2,0,0,1,1.14.47,13.44,13.44,0,0,0,8.68,3.08,8.9,8.9,0,0,0,5.4-1.41,4.74,4.74,0,0,0,1.88-4,3.3,3.3,0,0,0-.9-2.41,6.36,6.36,0,0,0-2.37-1.48,35.37,35.37,0,0,0-4-1.16,36.83,36.83,0,0,1-5.5-1.71,8.53,8.53,0,0,1-3.48-2.57,6.78,6.78,0,0,1-1.33-4.37,8,8,0,0,1,1.33-4.56,8.68,8.68,0,0,1,3.72-3.08,13,13,0,0,1,5.46-1.09,15.28,15.28,0,0,1,5.34.92,11.18,11.18,0,0,1,4.15,2.63,2.14,2.14,0,0,1,.66,1.5,1.73,1.73,0,0,1-.33,1,1,1,0,0,1-.78.45,2.44,2.44,0,0,1-1.18-.47,14.08,14.08,0,0,0-3.72-2.4,11.36,11.36,0,0,0-4.14-.68,8.36,8.36,0,0,0-5.27,1.47,5,5,0,0,0-1.89,4.14,3.86,3.86,0,0,0,1.66,3.4,16.2,16.2,0,0,0,5.09,2,60.76,60.76,0,0,1,5.85,1.73,8.7,8.7,0,0,1,3.54,2.38,6.15,6.15,0,0,1,1.42,4.24,7.68,7.68,0,0,1-1.33,4.45,8.68,8.68,0,0,1-3.75,3,13.56,13.56,0,0,1-5.52,1.07A18,18,0,0,1,260.82,280.59Z"/><path class="cls-7" d="M298.44,276.75a1.47,1.47,0,0,1,.32,1,2.46,2.46,0,0,1-1.43,2,12.31,12.31,0,0,1-6.3,1.8,9.5,9.5,0,0,1-7.3-2.87q-2.69-2.86-2.68-7.92a12.85,12.85,0,0,1,1.19-5.68,9.16,9.16,0,0,1,3.33-3.83,8.92,8.92,0,0,1,4.89-1.37,7.76,7.76,0,0,1,6.18,2.66,10.66,10.66,0,0,1,2.29,7.19,1.9,1.9,0,0,1-.33,1.24,1.31,1.31,0,0,1-1.06.39H284.36q.38,7.37,6.67,7.36a7.45,7.45,0,0,0,2.74-.45,18,18,0,0,0,2.46-1.22,3.72,3.72,0,0,1,1.43-.64A1,1,0,0,1,298.44,276.75Zm-12.13-12.5a8,8,0,0,0-1.87,4.84H296a7.65,7.65,0,0,0-1.51-4.86,5,5,0,0,0-4-1.69A5.41,5.41,0,0,0,286.31,264.25Z"/><path class="cls-7" d="M304.27,281a1.64,1.64,0,0,1-.47-1.26V252.52a1.58,1.58,0,0,1,1.67-1.71,1.61,1.61,0,0,1,1.17.45,1.67,1.67,0,0,1,.47,1.26v27.19a1.67,1.67,0,0,1-.47,1.26,1.61,1.61,0,0,1-1.17.45A1.65,1.65,0,0,1,304.27,281Z"/><path class="cls-7" d="M329.08,260a1.63,1.63,0,0,1,1.11.43,1.39,1.39,0,0,1,.49,1.07,1.34,1.34,0,0,1-.17.68l-8,18a2,2,0,0,1-.74.87,1.86,1.86,0,0,1-1.06.32,1.81,1.81,0,0,1-1-.32,2.2,2.2,0,0,1-.78-.87l-7.93-18a1.28,1.28,0,0,1-.17-.64,1.41,1.41,0,0,1,.56-1.11,1.82,1.82,0,0,1,1.2-.47,1.36,1.36,0,0,1,.8.26,1.56,1.56,0,0,1,.59.72L320.82,277l6.83-16A1.49,1.49,0,0,1,329.08,260Z"/><path class="cls-7" d="M337.08,281a11,11,0,0,1-3-1.33,4,4,0,0,1-1-1,1.89,1.89,0,0,1-.31-1.09,1.42,1.42,0,0,1,.31-.92,1,1,0,0,1,.8-.36,3,3,0,0,1,1.43.64,13.81,13.81,0,0,0,2.43,1.22,8.72,8.72,0,0,0,3,.45,6.23,6.23,0,0,0,3.44-.81,2.65,2.65,0,0,0,1.23-2.36,2.41,2.41,0,0,0-.45-1.52,3.76,3.76,0,0,0-1.56-1,23.39,23.39,0,0,0-3.23-.92,11.93,11.93,0,0,1-5.16-2.18,4.71,4.71,0,0,1-1.55-3.72,5.6,5.6,0,0,1,1-3.26,6.68,6.68,0,0,1,2.72-2.22,9.12,9.12,0,0,1,3.95-.82,10.7,10.7,0,0,1,3.09.45,9,9,0,0,1,2.64,1.27,2.79,2.79,0,0,1,1.39,2.14,1.4,1.4,0,0,1-.33.94,1,1,0,0,1-.78.38,3.05,3.05,0,0,1-1.47-.72,12,12,0,0,0-2.17-1.2,6.46,6.46,0,0,0-2.53-.43,4.89,4.89,0,0,0-3.09.9,2.87,2.87,0,0,0-1.17,2.39,2.45,2.45,0,0,0,.43,1.52,3.52,3.52,0,0,0,1.43,1,16.48,16.48,0,0,0,2.89.88,20.25,20.25,0,0,1,4.31,1.41,5,5,0,0,1,2.19,1.89,5.45,5.45,0,0,1,.66,2.82,5.22,5.22,0,0,1-2.17,4.35,9.24,9.24,0,0,1-5.73,1.65A13.51,13.51,0,0,1,337.08,281Z"/><path class="cls-7" d="M364,280.05a1.24,1.24,0,0,1-.51,1.09,2.29,2.29,0,0,1-1.53.28l-1.11-.09a6.79,6.79,0,0,1-4.83-2.05,8.17,8.17,0,0,1-1.55-5.44V263.1h-2.74a1.5,1.5,0,0,1-1.09-.37,1.27,1.27,0,0,1-.38-1,1.42,1.42,0,0,1,.38-1,1.46,1.46,0,0,1,1.09-.38h2.74v-4.84a1.7,1.7,0,0,1,.45-1.26,1.66,1.66,0,0,1,1.23-.45,1.59,1.59,0,0,1,1.18.45,1.7,1.7,0,0,1,.45,1.26v4.84h4.55a1.4,1.4,0,0,1,1,.38,1.39,1.39,0,0,1,.39,1,1.24,1.24,0,0,1-.39,1,1.44,1.44,0,0,1-1,.37H357.8V274a5.15,5.15,0,0,0,.92,3.41,3.86,3.86,0,0,0,2.77,1.17l1.1.09C363.54,278.77,364,279.22,364,280.05Z"/><path class="cls-7" d="M396.86,276.75a1.58,1.58,0,0,1,.3,1,2.38,2.38,0,0,1-1.43,2,12.53,12.53,0,0,1-3,1.33,11.27,11.27,0,0,1-3.13.47,9.35,9.35,0,0,1-5.15-1.37,8.55,8.55,0,0,1-3.23-3.94,7.42,7.42,0,0,1-2.66,3.91,7.52,7.52,0,0,1-4.59,1.4,8.46,8.46,0,0,1-3.72-.82,6.72,6.72,0,0,1-2.66-2.24,5.65,5.65,0,0,1-1-3.24,5.34,5.34,0,0,1,1.15-3.66,6.79,6.79,0,0,1,3.78-1.88,35.85,35.85,0,0,1,7.35-.58h.94v-1.28a6,6,0,0,0-1-3.88,4,4,0,0,0-3.27-1.22,10,10,0,0,0-3.31.47,17.55,17.55,0,0,0-2.66,1.24c-.28.17-.53.32-.76.43a1.31,1.31,0,0,1-.59.17,1,1,0,0,1-.8-.38,1.52,1.52,0,0,1-.31-1c0-.74.49-1.4,1.47-2a13,13,0,0,1,6.88-1.84q5,0,6.63,3.73a8.08,8.08,0,0,1,3-2.76,8.42,8.42,0,0,1,4-1,7.72,7.72,0,0,1,4.32,1.22,8,8,0,0,1,2.88,3.45,12.16,12.16,0,0,1,1,5.18,1.84,1.84,0,0,1-.35,1.24,1.38,1.38,0,0,1-1.09.39H383.05a8.58,8.58,0,0,0,1.84,5.5,6,6,0,0,0,4.7,1.86,7.09,7.09,0,0,0,2.64-.43,16.22,16.22,0,0,0,2.4-1.2l.79-.47a1.49,1.49,0,0,1,.68-.21A1,1,0,0,1,396.86,276.75Zm-18.6.22a6.68,6.68,0,0,0,1.56-4.54v-1.11H379a35.31,35.31,0,0,0-5.53.32,5.25,5.25,0,0,0-2.72,1.07,2.87,2.87,0,0,0-.79,2.2,3.58,3.58,0,0,0,1.2,2.79,4.52,4.52,0,0,0,3.09,1.07A5,5,0,0,0,378.26,277ZM385,264.25a8.08,8.08,0,0,0-1.84,4.84h11.29a7.71,7.71,0,0,0-1.49-4.86,4.76,4.76,0,0,0-3.87-1.69A5.27,5.27,0,0,0,385,264.25Z"/><path class="cls-7" d="M419.38,268.11v11.6A1.74,1.74,0,0,1,419,281a1.6,1.6,0,0,1-1.21.45,1.64,1.64,0,0,1-1.22-.45,1.66,1.66,0,0,1-.45-1.26V268.32a6.71,6.71,0,0,0-1.09-4.24,4.22,4.22,0,0,0-3.46-1.33,5.7,5.7,0,0,0-4.37,1.76,6.64,6.64,0,0,0-1.64,4.75v10.45a1.74,1.74,0,0,1-.43,1.26,1.6,1.6,0,0,1-1.21.45,1.64,1.64,0,0,1-1.22-.45,1.7,1.7,0,0,1-.45-1.26V261.64a1.72,1.72,0,0,1,.45-1.24,1.61,1.61,0,0,1,1.22-.47,1.53,1.53,0,0,1,1.17.47,1.68,1.68,0,0,1,.43,1.2v2.18a6.88,6.88,0,0,1,2.74-2.93,7.94,7.94,0,0,1,4-1Q419.38,259.84,419.38,268.11Z"/><path class="cls-7" d="M442.66,251.28a1.65,1.65,0,0,1,.45,1.2v27.23a1.72,1.72,0,0,1-.45,1.24,1.63,1.63,0,0,1-1.23.47,1.57,1.57,0,0,1-1.21-.47,1.79,1.79,0,0,1-.42-1.24V277.4a6.82,6.82,0,0,1-2.64,3,7.65,7.65,0,0,1-4.07,1.07,8,8,0,0,1-4.63-1.37,9,9,0,0,1-3.11-3.84,13.92,13.92,0,0,1-1.1-5.71,13.66,13.66,0,0,1,1.1-5.65,8.64,8.64,0,0,1,3.11-3.77,8.24,8.24,0,0,1,4.63-1.33,7.65,7.65,0,0,1,4.07,1.07,6.82,6.82,0,0,1,2.64,3V252.48a1.71,1.71,0,0,1,.42-1.22,1.6,1.6,0,0,1,1.21-.45A1.63,1.63,0,0,1,442.66,251.28Zm-4.44,25.28a9.56,9.56,0,0,0,1.58-5.89,9.46,9.46,0,0,0-1.58-5.86,5.31,5.31,0,0,0-4.48-2.06,5.43,5.43,0,0,0-4.52,2.06,9.14,9.14,0,0,0-1.62,5.78,9.57,9.57,0,0,0,1.62,5.93,5.37,5.37,0,0,0,4.52,2.12A5.27,5.27,0,0,0,438.22,276.56Z"/><path class="cls-7" d="M449.33,254.83a2.1,2.1,0,0,1-.62-1.58,2.06,2.06,0,0,1,.62-1.54,2.42,2.42,0,0,1,3.19,0,2,2,0,0,1,.61,1.54,2.09,2.09,0,0,1-.61,1.58,2.42,2.42,0,0,1-3.19,0Zm.39,26.14a1.64,1.64,0,0,1-.47-1.26V261.64a1.58,1.58,0,0,1,1.67-1.71,1.61,1.61,0,0,1,1.19.45,1.7,1.7,0,0,1,.45,1.26v18.07a1.68,1.68,0,0,1-.45,1.28,1.84,1.84,0,0,1-2.39,0Z"/><path class="cls-7" d="M476.13,260.4a1.72,1.72,0,0,1,.45,1.24v18.15c0,3.11-.77,5.46-2.29,7s-3.8,2.37-6.8,2.37a13.62,13.62,0,0,1-7.28-1.8c-1-.57-1.47-1.22-1.47-2a1.56,1.56,0,0,1,.3-1,1,1,0,0,1,.8-.38,3.77,3.77,0,0,1,1.48.59,18.17,18.17,0,0,0,2.82,1.25,10.48,10.48,0,0,0,3.31.47,5.65,5.65,0,0,0,4.38-1.61,6.71,6.71,0,0,0,1.47-4.69v-3.68a6.43,6.43,0,0,1-2.63,3.08,8,8,0,0,1-4.2,1.07,8.45,8.45,0,0,1-4.64-1.28,8.58,8.58,0,0,1-3.15-3.64,13.64,13.64,0,0,1,0-10.87,8.33,8.33,0,0,1,7.79-4.93,7.82,7.82,0,0,1,4.13,1.07,6.75,6.75,0,0,1,2.66,3v-2.31a1.8,1.8,0,0,1,.43-1.24,1.57,1.57,0,0,1,1.21-.47A1.63,1.63,0,0,1,476.13,260.4Zm-4.5,15.31a10.1,10.1,0,0,0,0-11,5.53,5.53,0,0,0-4.52-2,5.66,5.66,0,0,0-4.57,2,8.31,8.31,0,0,0-1.65,5.46,8.4,8.4,0,0,0,1.65,5.51,5.66,5.66,0,0,0,4.57,2A5.54,5.54,0,0,0,471.63,275.71Z"/><path class="cls-7" d="M485.93,277.42a4.11,4.11,0,0,1,.63,2.5,8.2,8.2,0,0,1-2.09,5.7,1.22,1.22,0,0,1-.94.47,1,1,0,0,1-.73-.32,1,1,0,0,1-.33-.75,1.14,1.14,0,0,1,.33-.82,5.49,5.49,0,0,0,1.35-2.87,2.3,2.3,0,0,1-1.5-.7,2.25,2.25,0,0,1-.59-1.61,2.47,2.47,0,0,1,.63-1.75,2.07,2.07,0,0,1,1.58-.69A2,2,0,0,1,485.93,277.42Z"/><path class="cls-7" d="M505.77,281a10.87,10.87,0,0,1-3-1.33,4,4,0,0,1-1-1,1.82,1.82,0,0,1-.31-1.09,1.37,1.37,0,0,1,.31-.92,1,1,0,0,1,.8-.36A3,3,0,0,1,504,277a13.81,13.81,0,0,0,2.43,1.22,8.72,8.72,0,0,0,3,.45,6.23,6.23,0,0,0,3.44-.81,2.67,2.67,0,0,0,1.22-2.36,2.41,2.41,0,0,0-.45-1.52,3.72,3.72,0,0,0-1.55-1,23.82,23.82,0,0,0-3.23-.92,11.93,11.93,0,0,1-5.16-2.18,4.68,4.68,0,0,1-1.55-3.72,5.53,5.53,0,0,1,1-3.26,6.61,6.61,0,0,1,2.72-2.22,9.09,9.09,0,0,1,3.95-.82,10.7,10.7,0,0,1,3.09.45,9,9,0,0,1,2.64,1.27,2.79,2.79,0,0,1,1.39,2.14,1.4,1.4,0,0,1-.33.94,1,1,0,0,1-.78.38,3,3,0,0,1-1.47-.72,12,12,0,0,0-2.17-1.2,6.51,6.51,0,0,0-2.54-.43,4.93,4.93,0,0,0-3.09.9,2.89,2.89,0,0,0-1.16,2.39,2.45,2.45,0,0,0,.43,1.52,3.45,3.45,0,0,0,1.43,1,16.6,16.6,0,0,0,2.88.88,20.18,20.18,0,0,1,4.32,1.41,5.12,5.12,0,0,1,2.19,1.89,5.45,5.45,0,0,1,.65,2.82,5.21,5.21,0,0,1-2.16,4.35,9.24,9.24,0,0,1-5.73,1.65A13.46,13.46,0,0,1,505.77,281Z"/><path class="cls-7" d="M532.71,280.05a1.24,1.24,0,0,1-.51,1.09,2.29,2.29,0,0,1-1.53.28l-1.11-.09a6.79,6.79,0,0,1-4.83-2.05,8.17,8.17,0,0,1-1.55-5.44V263.1h-2.74a1.5,1.5,0,0,1-1.09-.37,1.24,1.24,0,0,1-.39-1,1.39,1.39,0,0,1,.39-1,1.46,1.46,0,0,1,1.09-.38h2.74v-4.84a1.7,1.7,0,0,1,.45-1.26,1.65,1.65,0,0,1,1.22-.45,1.6,1.6,0,0,1,1.19.45,1.7,1.7,0,0,1,.45,1.26v4.84H531a1.31,1.31,0,0,1,1.43,1.41,1.27,1.27,0,0,1-.38,1,1.45,1.45,0,0,1-1.05.37h-4.54V274a5.15,5.15,0,0,0,.92,3.41,3.85,3.85,0,0,0,2.76,1.17l1.11.09C532.23,278.77,532.71,279.22,532.71,280.05Z"/><path class="cls-7" d="M547.56,261.38a1.58,1.58,0,0,1-.37,1.1,1.89,1.89,0,0,1-1.26.49l-1.23.13a5.42,5.42,0,0,0-4.07,2,6.75,6.75,0,0,0-1.33,4.17v10.41a1.68,1.68,0,0,1-.45,1.28,1.64,1.64,0,0,1-1.19.43,1.69,1.69,0,0,1-1.21-.45,1.67,1.67,0,0,1-.47-1.26V261.64a1.65,1.65,0,0,1,.49-1.26,1.71,1.71,0,0,1,1.19-.45,1.51,1.51,0,0,1,1.11.45,1.64,1.64,0,0,1,.45,1.22V264a6.34,6.34,0,0,1,2.43-2.87,8,8,0,0,1,3.62-1.16l.57,0C547,259.84,547.56,260.33,547.56,261.38Z"/><path class="cls-7" d="M566.77,260.4a1.75,1.75,0,0,1,.43,1.24v18.11a1.68,1.68,0,0,1-.43,1.2,1.56,1.56,0,0,1-1.21.47,1.51,1.51,0,0,1-1.16-.45,1.62,1.62,0,0,1-.43-1.18v-2.14a6.63,6.63,0,0,1-2.64,2.87,7.46,7.46,0,0,1-3.83,1,6.73,6.73,0,0,1-5.36-2.08q-1.8-2.07-1.8-6.14V261.64a1.72,1.72,0,0,1,.45-1.24,1.63,1.63,0,0,1,1.23-.47,1.57,1.57,0,0,1,1.21.47,1.75,1.75,0,0,1,.43,1.24V273.2a6.42,6.42,0,0,0,1.06,4.09,4.08,4.08,0,0,0,3.36,1.3,5.39,5.39,0,0,0,4.21-1.77,6.74,6.74,0,0,0,1.6-4.69V261.64a1.72,1.72,0,0,1,.45-1.24,1.63,1.63,0,0,1,1.22-.47A1.56,1.56,0,0,1,566.77,260.4Z"/><path class="cls-7" d="M590,279.84a1.58,1.58,0,0,1-.43,1.11,1.39,1.39,0,0,1-1,.47,1.7,1.7,0,0,1-1.11-.51l-10.68-9.64v8.44a1.64,1.64,0,0,1-.47,1.26,1.61,1.61,0,0,1-1.16.45,1.58,1.58,0,0,1-1.68-1.71V252.52a1.58,1.58,0,0,1,1.68-1.71,1.61,1.61,0,0,1,1.16.45,1.64,1.64,0,0,1,.47,1.26V269.9l9.78-9.37a1.53,1.53,0,0,1,1.11-.52,1.44,1.44,0,0,1,1.06.47,1.58,1.58,0,0,1,.45,1.12,1.74,1.74,0,0,1-.57,1.28l-8.06,7.54,8.83,8.05A1.88,1.88,0,0,1,590,279.84Z"/><path class="cls-7" d="M604.31,280.05a1.24,1.24,0,0,1-.51,1.09,2.31,2.31,0,0,1-1.54.28l-1.1-.09a6.79,6.79,0,0,1-4.83-2.05c-1-1.2-1.55-3-1.55-5.44V263.1H592a1.5,1.5,0,0,1-1.09-.37,1.24,1.24,0,0,1-.39-1,1.39,1.39,0,0,1,.39-1,1.46,1.46,0,0,1,1.09-.38h2.74v-4.84a1.7,1.7,0,0,1,.45-1.26,1.65,1.65,0,0,1,1.22-.45,1.6,1.6,0,0,1,1.19.45,1.7,1.7,0,0,1,.45,1.26v4.84h4.54a1.31,1.31,0,0,1,1.43,1.41,1.27,1.27,0,0,1-.38,1,1.45,1.45,0,0,1-1,.37h-4.54V274a5.15,5.15,0,0,0,.92,3.41,3.83,3.83,0,0,0,2.76,1.17l1.11.09C603.83,278.77,604.31,279.22,604.31,280.05Z"/><path class="cls-7" d="M623.93,260.4a1.8,1.8,0,0,1,.43,1.24v18.11a1.73,1.73,0,0,1-.43,1.2,1.57,1.57,0,0,1-1.21.47,1.51,1.51,0,0,1-1.16-.45,1.62,1.62,0,0,1-.43-1.18v-2.14a6.63,6.63,0,0,1-2.64,2.87,7.49,7.49,0,0,1-3.83,1,6.73,6.73,0,0,1-5.36-2.08q-1.8-2.07-1.8-6.14V261.64a1.72,1.72,0,0,1,.45-1.24,1.63,1.63,0,0,1,1.23-.47,1.57,1.57,0,0,1,1.21.47,1.8,1.8,0,0,1,.43,1.24V273.2a6.42,6.42,0,0,0,1.06,4.09,4.08,4.08,0,0,0,3.35,1.3,5.42,5.42,0,0,0,4.22-1.77,6.78,6.78,0,0,0,1.59-4.69V261.64a1.72,1.72,0,0,1,.45-1.24,1.63,1.63,0,0,1,1.23-.47A1.57,1.57,0,0,1,623.93,260.4Z"/><path class="cls-7" d="M642.11,261.38a1.62,1.62,0,0,1-.36,1.1,1.94,1.94,0,0,1-1.27.49l-1.23.13a5.44,5.44,0,0,0-4.07,2,6.75,6.75,0,0,0-1.33,4.17v10.41a1.68,1.68,0,0,1-.45,1.28,1.68,1.68,0,0,1-2.86-1.28V261.64a1.61,1.61,0,0,1,.49-1.26,1.67,1.67,0,0,1,1.18-.45,1.51,1.51,0,0,1,1.11.45,1.64,1.64,0,0,1,.45,1.22V264a6.34,6.34,0,0,1,2.43-2.87,8,8,0,0,1,3.62-1.16l.58,0C641.54,259.84,642.11,260.33,642.11,261.38Z"/><path class="cls-7" d="M660.77,276.75a1.48,1.48,0,0,1,.33,1,2.48,2.48,0,0,1-1.43,2,12.22,12.22,0,0,1-3.11,1.35,12.09,12.09,0,0,1-3.19.45,9.53,9.53,0,0,1-7.31-2.87c-1.78-1.91-2.68-4.55-2.68-7.92a13,13,0,0,1,1.19-5.68,9.16,9.16,0,0,1,3.33-3.83,8.92,8.92,0,0,1,4.89-1.37A7.76,7.76,0,0,1,659,262.5a10.61,10.61,0,0,1,2.29,7.19,1.9,1.9,0,0,1-.33,1.24,1.3,1.3,0,0,1-1.06.39H646.7q.36,7.37,6.67,7.36a7.53,7.53,0,0,0,2.74-.45,18,18,0,0,0,2.45-1.22,3.78,3.78,0,0,1,1.43-.64A1,1,0,0,1,660.77,276.75Zm-12.13-12.5a8,8,0,0,0-1.86,4.84h11.58a7.65,7.65,0,0,0-1.52-4.86,5,5,0,0,0-4-1.69A5.43,5.43,0,0,0,648.64,264.25Z"/><path class="cls-7" d="M676.65,280.05a1.25,1.25,0,0,1-.52,1.09,2.29,2.29,0,0,1-1.53.28l-1.1-.09a6.76,6.76,0,0,1-4.83-2.05q-1.56-1.8-1.56-5.44V263.1h-2.74a1.49,1.49,0,0,1-1.08-.37,1.24,1.24,0,0,1-.39-1,1.39,1.39,0,0,1,.39-1,1.45,1.45,0,0,1,1.08-.38h2.74v-4.84a1.7,1.7,0,0,1,.45-1.26,1.66,1.66,0,0,1,1.23-.45,1.61,1.61,0,0,1,1.19.45,1.7,1.7,0,0,1,.45,1.26v4.84H675a1.4,1.4,0,0,1,1,.38,1.39,1.39,0,0,1,.39,1,1.24,1.24,0,0,1-.39,1,1.44,1.44,0,0,1-1,.37h-4.54V274a5.1,5.1,0,0,0,.92,3.41,3.81,3.81,0,0,0,2.76,1.17l1.1.09C676.17,278.77,676.65,279.22,676.65,280.05Z"/><path class="cls-7" d="M693.77,280.18a8.79,8.79,0,0,1-3.32-3.79,14.66,14.66,0,0,1,0-11.43,8.73,8.73,0,0,1,3.32-3.79,9.3,9.3,0,0,1,5-1.33,9.4,9.4,0,0,1,5,1.33,8.65,8.65,0,0,1,3.34,3.79,14.66,14.66,0,0,1,0,11.43,8.7,8.7,0,0,1-3.34,3.79,9.4,9.4,0,0,1-5,1.33A9.3,9.3,0,0,1,693.77,280.18Zm9.49-3.58a11.76,11.76,0,0,0,0-11.81,5.91,5.91,0,0,0-9,0,9.42,9.42,0,0,0-1.6,5.88,9.56,9.56,0,0,0,1.58,5.91,6,6,0,0,0,9,0Z"/><path class="cls-7" d="M730.57,260.4a1.72,1.72,0,0,1,.45,1.24v18.15q0,4.66-2.29,7t-6.79,2.37a13.63,13.63,0,0,1-7.29-1.8c-1-.57-1.47-1.22-1.47-2a1.5,1.5,0,0,1,.31-1,1,1,0,0,1,.8-.38,3.8,3.8,0,0,1,1.47.59,18.6,18.6,0,0,0,2.82,1.25,10.5,10.5,0,0,0,3.32.47,5.64,5.64,0,0,0,4.37-1.61,6.67,6.67,0,0,0,1.48-4.69v-3.68a6.5,6.5,0,0,1-2.64,3.08,7.94,7.94,0,0,1-4.19,1.07,8.46,8.46,0,0,1-4.65-1.28,8.58,8.58,0,0,1-3.15-3.64,13.75,13.75,0,0,1,0-10.87,8.33,8.33,0,0,1,7.8-4.93,7.84,7.84,0,0,1,4.13,1.07,6.81,6.81,0,0,1,2.66,3v-2.31a1.75,1.75,0,0,1,.43-1.24,1.54,1.54,0,0,1,1.2-.47A1.63,1.63,0,0,1,730.57,260.4Zm-4.5,15.31a10,10,0,0,0,0-11,5.51,5.51,0,0,0-4.52-2,5.62,5.62,0,0,0-4.56,2,8.26,8.26,0,0,0-1.66,5.46,8.35,8.35,0,0,0,1.66,5.51,5.62,5.62,0,0,0,4.56,2A5.53,5.53,0,0,0,726.07,275.71Z"/><path class="cls-7" d="M764.28,279.84a1.58,1.58,0,0,1-.43,1.11,1.36,1.36,0,0,1-1,.47,1.69,1.69,0,0,1-1.1-.51L751,271.27v8.44a1.67,1.67,0,0,1-.47,1.26,1.65,1.65,0,0,1-1.17.45,1.69,1.69,0,0,1-1.21-.45,1.67,1.67,0,0,1-.47-1.26V252.52a1.67,1.67,0,0,1,.47-1.26,1.69,1.69,0,0,1,1.21-.45,1.65,1.65,0,0,1,1.17.45,1.67,1.67,0,0,1,.47,1.26V269.9l9.78-9.37a1.49,1.49,0,0,1,1.1-.52,1.43,1.43,0,0,1,1.06.47,1.58,1.58,0,0,1,.45,1.12,1.74,1.74,0,0,1-.57,1.28l-8.06,7.54,8.84,8.05A1.9,1.9,0,0,1,764.28,279.84Z"/><path class="cls-7" d="M779.75,261.38a1.58,1.58,0,0,1-.37,1.1,1.94,1.94,0,0,1-1.27.49l-1.23.13a5.46,5.46,0,0,0-4.07,2,6.81,6.81,0,0,0-1.33,4.17v10.41A1.68,1.68,0,0,1,771,281a1.62,1.62,0,0,1-1.18.43,1.58,1.58,0,0,1-1.68-1.71V261.64a1.61,1.61,0,0,1,.49-1.26,1.7,1.7,0,0,1,1.19-.45,1.5,1.5,0,0,1,1.1.45,1.64,1.64,0,0,1,.45,1.22V264a6.42,6.42,0,0,1,2.44-2.87,8,8,0,0,1,3.62-1.16l.57,0C779.18,259.84,779.75,260.33,779.75,261.38Z"/><path class="cls-7" d="M798.41,276.75a1.53,1.53,0,0,1,.32,1,2.46,2.46,0,0,1-1.43,2,12.31,12.31,0,0,1-6.3,1.8,9.5,9.5,0,0,1-7.3-2.87q-2.69-2.86-2.68-7.92A13,13,0,0,1,782.2,265a9.25,9.25,0,0,1,3.34-3.83,8.92,8.92,0,0,1,4.89-1.37,7.76,7.76,0,0,1,6.18,2.66,10.66,10.66,0,0,1,2.29,7.19,1.9,1.9,0,0,1-.33,1.24,1.31,1.31,0,0,1-1.06.39H784.33q.38,7.37,6.67,7.36a7.49,7.49,0,0,0,2.74-.45A18,18,0,0,0,796.2,277a3.72,3.72,0,0,1,1.43-.64A1,1,0,0,1,798.41,276.75Zm-12.13-12.5a8,8,0,0,0-1.87,4.84H796a7.65,7.65,0,0,0-1.51-4.86,5,5,0,0,0-4-1.69A5.41,5.41,0,0,0,786.28,264.25Z"/><path class="cls-7" d="M819.4,268.06v11.65A1.8,1.8,0,0,1,819,281a1.53,1.53,0,0,1-1.17.47,1.59,1.59,0,0,1-1.19-.47,1.72,1.72,0,0,1-.45-1.24v-2.06a6.07,6.07,0,0,1-2.37,2.85,6.75,6.75,0,0,1-3.68,1,7.81,7.81,0,0,1-3.54-.82,6.41,6.41,0,0,1-2.56-2.27,5.77,5.77,0,0,1-.94-3.21,5.34,5.34,0,0,1,1.15-3.66,6.76,6.76,0,0,1,3.76-1.88,35.22,35.22,0,0,1,7.28-.58h.9v-1.41a5.8,5.8,0,0,0-1-3.77,4,4,0,0,0-3.25-1.2,11.57,11.57,0,0,0-5.65,1.59,3.63,3.63,0,0,1-1.55.72,1,1,0,0,1-.82-.38,1.48,1.48,0,0,1-.33-1,1.68,1.68,0,0,1,.35-1,4.29,4.29,0,0,1,1.12-.92,13,13,0,0,1,3.26-1.35,14.14,14.14,0,0,1,3.62-.49Q819.4,259.84,819.4,268.06Zm-4.81,9a6.37,6.37,0,0,0,1.57-4.47v-1.24h-.73a34.48,34.48,0,0,0-5.49.32,5.21,5.21,0,0,0-2.68,1.07,2.87,2.87,0,0,0-.79,2.2,3.58,3.58,0,0,0,1.16,2.76,4.11,4.11,0,0,0,2.93,1.1A5.2,5.2,0,0,0,814.59,277Z"/><path class="cls-7" d="M836.09,280.05a1.24,1.24,0,0,1-.51,1.09,2.34,2.34,0,0,1-1.54.28l-1.1-.09a6.78,6.78,0,0,1-4.83-2.05q-1.56-1.8-1.56-5.44V263.1h-2.74a1.49,1.49,0,0,1-1.08-.37,1.24,1.24,0,0,1-.39-1,1.39,1.39,0,0,1,.39-1,1.45,1.45,0,0,1,1.08-.38h2.74v-4.84a1.7,1.7,0,0,1,.45-1.26,1.66,1.66,0,0,1,1.23-.45,1.61,1.61,0,0,1,1.19.45,1.7,1.7,0,0,1,.45,1.26v4.84h4.54a1.33,1.33,0,0,1,1.43,1.41,1.24,1.24,0,0,1-.39,1,1.42,1.42,0,0,1-1,.37h-4.54V274a5.1,5.1,0,0,0,.92,3.41,3.81,3.81,0,0,0,2.76,1.17l1.11.09C835.61,278.77,836.09,279.22,836.09,280.05Z"/><path class="cls-7" d="M839.44,254.83a2.09,2.09,0,0,1-.61-1.58,2,2,0,0,1,.61-1.54,2.42,2.42,0,0,1,3.19,0,2.06,2.06,0,0,1,.62,1.54,2.1,2.1,0,0,1-.62,1.58,2.42,2.42,0,0,1-3.19,0Zm.39,26.14a1.67,1.67,0,0,1-.47-1.26V261.64a1.58,1.58,0,0,1,1.68-1.71,1.59,1.59,0,0,1,1.18.45,1.7,1.7,0,0,1,.45,1.26v18.07a1.68,1.68,0,0,1-.45,1.28,1.62,1.62,0,0,1-1.18.43A1.68,1.68,0,0,1,839.83,281Z"/><path class="cls-7" d="M864.65,260a1.63,1.63,0,0,1,1.1.43,1.36,1.36,0,0,1,.49,1.07,1.34,1.34,0,0,1-.16.68l-8,18a1.91,1.91,0,0,1-.74.87,1.84,1.84,0,0,1-1.06.32,1.76,1.76,0,0,1-1-.32,2.2,2.2,0,0,1-.78-.87l-7.94-18a1.27,1.27,0,0,1-.16-.64,1.4,1.4,0,0,1,.55-1.11,1.84,1.84,0,0,1,1.21-.47,1.38,1.38,0,0,1,.8.26,1.69,1.69,0,0,1,.59.72L856.38,277l6.83-16A1.5,1.5,0,0,1,864.65,260Z"/></g><g class="cls-6"><path class="cls-7" d="M220,392.77a8.12,8.12,0,0,1-6.14-2.75,9.55,9.55,0,0,1,0-13.09,8.59,8.59,0,0,1,12.55,0,9.24,9.24,0,0,1,2.59,6.61,9,9,0,0,1-2.63,6.54A8.59,8.59,0,0,1,220,392.77Zm0-3.09a5.73,5.73,0,0,0,4.27-1.8,6,6,0,0,0,1.74-4.35,6.21,6.21,0,0,0-1.71-4.41,5.73,5.73,0,0,0-8.37,0,6.4,6.4,0,0,0,0,8.74A5.45,5.45,0,0,0,220,389.68Z"/></g><g class="cls-6"><path class="cls-7" d="M279.92,382.09a1.42,1.42,0,0,1,.39,1.07v10.66a3.13,3.13,0,0,1-.3,1.54,2.1,2.1,0,0,1-1.13.81,17.58,17.58,0,0,1-4,1.16,26.23,26.23,0,0,1-4.66.43,14.37,14.37,0,0,1-7.41-1.84,12,12,0,0,1-4.76-5.31,21.53,21.53,0,0,1,0-16.53,12.05,12.05,0,0,1,4.7-5.33,13.64,13.64,0,0,1,7.2-1.86,15.13,15.13,0,0,1,5.32.92,11.13,11.13,0,0,1,4.13,2.63,2.17,2.17,0,0,1,.7,1.5,1.73,1.73,0,0,1-.33,1.05,1,1,0,0,1-.82.45,1.93,1.93,0,0,1-1.14-.52,14.93,14.93,0,0,0-3.85-2.37,11,11,0,0,0-4-.67,9,9,0,0,0-7.46,3.22c-1.74,2.14-2.6,5.21-2.6,9.2s.88,7.19,2.64,9.31,4.34,3.19,7.75,3.19a19,19,0,0,0,6.91-1.2v-9.16h-6a1.56,1.56,0,0,1-1.1-.38,1.28,1.28,0,0,1-.41-1,1.24,1.24,0,0,1,.41-1,1.56,1.56,0,0,1,1.1-.37h7.65A1.33,1.33,0,0,1,279.92,382.09Z"/><path class="cls-7" d="M287.08,397.18a1.67,1.67,0,0,1-.47-1.26V368.73a1.67,1.67,0,0,1,.47-1.26,1.69,1.69,0,0,1,1.21-.45,1.65,1.65,0,0,1,1.17.45,1.67,1.67,0,0,1,.47,1.26v27.19a1.67,1.67,0,0,1-.47,1.26,1.65,1.65,0,0,1-1.17.45A1.69,1.69,0,0,1,287.08,397.18Z"/><path class="cls-7" d="M311.73,384.27v11.65a1.77,1.77,0,0,1-.43,1.24,1.49,1.49,0,0,1-1.16.47,1.59,1.59,0,0,1-1.19-.47,1.73,1.73,0,0,1-.45-1.24v-2.06a6.07,6.07,0,0,1-2.37,2.85,6.74,6.74,0,0,1-3.68,1,7.8,7.8,0,0,1-3.54-.81,6.41,6.41,0,0,1-2.56-2.27,5.77,5.77,0,0,1-.94-3.21,5.34,5.34,0,0,1,1.15-3.66,6.76,6.76,0,0,1,3.76-1.88,35.16,35.16,0,0,1,7.28-.58h.9v-1.42a5.79,5.79,0,0,0-1-3.76,4,4,0,0,0-3.25-1.2,11.67,11.67,0,0,0-5.65,1.58,3.56,3.56,0,0,1-1.55.73,1,1,0,0,1-.82-.38,1.48,1.48,0,0,1-.33-1,1.68,1.68,0,0,1,.35-1.05,4.29,4.29,0,0,1,1.12-.92,13,13,0,0,1,3.26-1.35,13.72,13.72,0,0,1,3.62-.49Q311.74,376.05,311.73,384.27Zm-4.8,9a6.4,6.4,0,0,0,1.57-4.47v-1.25h-.73a34.24,34.24,0,0,0-5.49.33,5.21,5.21,0,0,0-2.68,1.07,2.87,2.87,0,0,0-.79,2.2,3.61,3.61,0,0,0,1.16,2.76A4.11,4.11,0,0,0,302.9,395,5.19,5.19,0,0,0,306.93,393.24Z"/><path class="cls-7" d="M335,367.49a1.65,1.65,0,0,1,.45,1.2v27.23a1.73,1.73,0,0,1-.45,1.24,1.61,1.61,0,0,1-1.22.47,1.57,1.57,0,0,1-1.21-.47,1.77,1.77,0,0,1-.43-1.24V393.6a6.72,6.72,0,0,1-2.64,3,7.54,7.54,0,0,1-4.07,1.07,7.94,7.94,0,0,1-4.62-1.37,8.86,8.86,0,0,1-3.11-3.83,13.75,13.75,0,0,1-1.11-5.71,13.5,13.5,0,0,1,1.11-5.65,8.57,8.57,0,0,1,3.11-3.77,8.13,8.13,0,0,1,4.62-1.33,7.63,7.63,0,0,1,4.07,1.07,6.77,6.77,0,0,1,2.64,3V368.69a1.67,1.67,0,0,1,.43-1.22,1.6,1.6,0,0,1,1.21-.45A1.58,1.58,0,0,1,335,367.49Zm-4.43,25.28a9.67,9.67,0,0,0,1.57-5.89,9.53,9.53,0,0,0-1.57-5.86A5.32,5.32,0,0,0,326.1,379a5.45,5.45,0,0,0-4.53,2.06A9.18,9.18,0,0,0,320,386.8a9.65,9.65,0,0,0,1.61,5.93,5.38,5.38,0,0,0,4.53,2.12A5.31,5.31,0,0,0,330.58,392.77Z"/><path class="cls-7" d="M344.81,393.62a4.09,4.09,0,0,1,.64,2.51,8.19,8.19,0,0,1-2.09,5.69,1.2,1.2,0,0,1-.94.47,1,1,0,0,1-.74-.32,1,1,0,0,1-.32-.75,1.12,1.12,0,0,1,.32-.81,5.45,5.45,0,0,0,1.35-2.87,2.28,2.28,0,0,1-1.49-.7,2.22,2.22,0,0,1-.59-1.61,2.47,2.47,0,0,1,.63-1.75,2.05,2.05,0,0,1,1.58-.69A2,2,0,0,1,344.81,393.62Z"/><path class="cls-7" d="M390.33,384.31v11.61a1.7,1.7,0,0,1-.45,1.26,1.61,1.61,0,0,1-1.19.45,1.58,1.58,0,0,1-1.67-1.71V384.4a6.84,6.84,0,0,0-1-4.15A3.59,3.59,0,0,0,383,379a4.79,4.79,0,0,0-3.93,1.76,7.26,7.26,0,0,0-1.43,4.75v10.45a1.6,1.6,0,0,1-1.68,1.71,1.61,1.61,0,0,1-1.19-.45,1.7,1.7,0,0,1-.45-1.26V384.4a6.92,6.92,0,0,0-1-4.15A3.65,3.65,0,0,0,370.2,379a4.82,4.82,0,0,0-3.91,1.76,7.21,7.21,0,0,0-1.45,4.75v10.45a1.7,1.7,0,0,1-.45,1.26,1.61,1.61,0,0,1-1.19.45,1.58,1.58,0,0,1-1.67-1.71V377.85a1.64,1.64,0,0,1,.47-1.24,1.59,1.59,0,0,1,1.2-.47,1.55,1.55,0,0,1,1.15.45,1.62,1.62,0,0,1,.45,1.22v2.05a6.69,6.69,0,0,1,2.49-2.83,7,7,0,0,1,3.69-1q4.66,0,6.09,4.11a6.93,6.93,0,0,1,2.62-3,7.35,7.35,0,0,1,4-1.11Q390.33,376.05,390.33,384.31Z"/><path class="cls-7" d="M399.68,396.39a8.79,8.79,0,0,1-3.32-3.79,14.66,14.66,0,0,1,0-11.43,8.73,8.73,0,0,1,3.32-3.79,9.21,9.21,0,0,1,5-1.33,9.31,9.31,0,0,1,5,1.33,8.65,8.65,0,0,1,3.34,3.79,14.66,14.66,0,0,1,0,11.43,8.7,8.7,0,0,1-3.34,3.79,9.39,9.39,0,0,1-5,1.32A9.3,9.3,0,0,1,399.68,396.39Zm9.49-3.58a11.76,11.76,0,0,0,0-11.81,5.91,5.91,0,0,0-9,0,9.42,9.42,0,0,0-1.6,5.88,9.56,9.56,0,0,0,1.58,5.91,6,6,0,0,0,9,0Z"/><path class="cls-7" d="M429.69,396.26a1.25,1.25,0,0,1-.51,1.09,2.37,2.37,0,0,1-1.54.28l-1.1-.09a6.79,6.79,0,0,1-4.83-2.05c-1-1.2-1.55-3-1.55-5.44V379.3h-2.74a1.54,1.54,0,0,1-1.09-.36,1.24,1.24,0,0,1-.39-1,1.39,1.39,0,0,1,.39-1,1.47,1.47,0,0,1,1.09-.39h2.74v-4.83a1.71,1.71,0,0,1,.45-1.27,1.65,1.65,0,0,1,1.22-.45,1.61,1.61,0,0,1,1.19.45,1.71,1.71,0,0,1,.45,1.27v4.83H428a1.34,1.34,0,0,1,1.43,1.42,1.24,1.24,0,0,1-.39,1,1.46,1.46,0,0,1-1,.36h-4.54v10.92a5.1,5.1,0,0,0,.92,3.4,3.78,3.78,0,0,0,2.76,1.18l1.11.09C429.21,395,429.69,395.43,429.69,396.26Z"/><path class="cls-7" d="M433,371a2.11,2.11,0,0,1-.61-1.58,2,2,0,0,1,.61-1.54,2.43,2.43,0,0,1,3.2,0,2.09,2.09,0,0,1,.61,1.54,2.15,2.15,0,0,1-.61,1.58,2.43,2.43,0,0,1-3.2,0Zm.39,26.14a1.67,1.67,0,0,1-.47-1.26V377.85a1.66,1.66,0,0,1,.47-1.26,1.69,1.69,0,0,1,1.21-.45,1.61,1.61,0,0,1,1.19.45,1.69,1.69,0,0,1,.45,1.26v18.07a1.68,1.68,0,0,1-.45,1.28,1.64,1.64,0,0,1-1.19.43A1.69,1.69,0,0,1,433.43,397.18Z"/><path class="cls-7" d="M458.25,376.18a1.61,1.61,0,0,1,1.1.43,1.34,1.34,0,0,1,.49,1.07,1.39,1.39,0,0,1-.16.68l-8,18a1.93,1.93,0,0,1-.74.88,1.84,1.84,0,0,1-1.06.32,1.76,1.76,0,0,1-1-.32,2.22,2.22,0,0,1-.78-.88l-7.94-18a1.29,1.29,0,0,1-.16-.64,1.4,1.4,0,0,1,.55-1.11,1.79,1.79,0,0,1,1.21-.47,1.45,1.45,0,0,1,.8.25,1.72,1.72,0,0,1,.59.73L450,393.18l6.83-16A1.5,1.5,0,0,1,458.25,376.18Z"/><path class="cls-7" d="M479.44,393a1.48,1.48,0,0,1,.33,1,2.48,2.48,0,0,1-1.43,2,12.55,12.55,0,0,1-3.11,1.34,12.09,12.09,0,0,1-3.19.45,9.52,9.52,0,0,1-7.31-2.86q-2.69-2.88-2.68-7.93a12.92,12.92,0,0,1,1.19-5.67,9.1,9.1,0,0,1,3.33-3.83,8.92,8.92,0,0,1,4.89-1.37,7.78,7.78,0,0,1,6.18,2.65,10.63,10.63,0,0,1,2.29,7.2,1.9,1.9,0,0,1-.33,1.24,1.29,1.29,0,0,1-1.06.38H465.37q.36,7.37,6.67,7.37a7.53,7.53,0,0,0,2.74-.45,18,18,0,0,0,2.45-1.22,3.78,3.78,0,0,1,1.43-.64A1,1,0,0,1,479.44,393Zm-12.13-12.5a8,8,0,0,0-1.86,4.84H477a7.65,7.65,0,0,0-1.52-4.86,5,5,0,0,0-4-1.69A5.43,5.43,0,0,0,467.31,380.46Z"/><path class="cls-7" d="M496.38,377.59a1.53,1.53,0,0,1-.37,1.09,2,2,0,0,1-1.27.5l-1.23.12a5.46,5.46,0,0,0-4.07,2,6.79,6.79,0,0,0-1.33,4.17v10.41a1.68,1.68,0,0,1-.45,1.28,1.62,1.62,0,0,1-1.18.43,1.58,1.58,0,0,1-1.68-1.71V377.85a1.6,1.6,0,0,1,.49-1.26,1.7,1.7,0,0,1,1.19-.45,1.5,1.5,0,0,1,1.1.45,1.62,1.62,0,0,1,.45,1.22v2.39a6.46,6.46,0,0,1,2.44-2.87,8,8,0,0,1,3.62-1.15l.57,0C495.81,376.05,496.38,376.54,496.38,377.59Z"/><path class="cls-7" d="M515,393a1.53,1.53,0,0,1,.32,1,2.46,2.46,0,0,1-1.43,2,12.39,12.39,0,0,1-3.11,1.34,12,12,0,0,1-3.19.45,9.5,9.5,0,0,1-7.3-2.86q-2.68-2.88-2.68-7.93a12.91,12.91,0,0,1,1.18-5.67,9.12,9.12,0,0,1,3.34-3.83,8.92,8.92,0,0,1,4.89-1.37,7.78,7.78,0,0,1,6.18,2.65,10.69,10.69,0,0,1,2.29,7.2,1.9,1.9,0,0,1-.33,1.24,1.31,1.31,0,0,1-1.06.38H501q.38,7.37,6.67,7.37a7.49,7.49,0,0,0,2.74-.45,18.61,18.61,0,0,0,2.46-1.22,3.72,3.72,0,0,1,1.43-.64A1,1,0,0,1,515,393Zm-12.14-12.5A8,8,0,0,0,501,385.3h11.58a7.65,7.65,0,0,0-1.51-4.86,5,5,0,0,0-4-1.69A5.44,5.44,0,0,0,502.9,380.46Z"/><path class="cls-7" d="M530.91,396.26a1.25,1.25,0,0,1-.51,1.09,2.37,2.37,0,0,1-1.54.28l-1.1-.09a6.79,6.79,0,0,1-4.83-2.05c-1-1.2-1.55-3-1.55-5.44V379.3h-2.74a1.54,1.54,0,0,1-1.09-.36,1.24,1.24,0,0,1-.39-1,1.39,1.39,0,0,1,.39-1,1.47,1.47,0,0,1,1.09-.39h2.74v-4.83a1.71,1.71,0,0,1,.45-1.27,1.65,1.65,0,0,1,1.22-.45,1.6,1.6,0,0,1,1.19.45,1.71,1.71,0,0,1,.45,1.27v4.83h4.54a1.42,1.42,0,0,1,1,.39,1.39,1.39,0,0,1,.39,1,1.24,1.24,0,0,1-.39,1,1.49,1.49,0,0,1-1,.36h-4.54v10.92a5.1,5.1,0,0,0,.92,3.4,3.82,3.82,0,0,0,2.76,1.18l1.11.09C530.43,395,530.91,395.43,530.91,396.26Z"/><path class="cls-7" d="M548,396.39a8.77,8.77,0,0,1-3.31-3.79,14.54,14.54,0,0,1,0-11.43,8.71,8.71,0,0,1,3.31-3.79,9.21,9.21,0,0,1,5-1.33,9.34,9.34,0,0,1,5,1.33,8.69,8.69,0,0,1,3.33,3.79,14.54,14.54,0,0,1,0,11.43,8.75,8.75,0,0,1-3.33,3.79,9.43,9.43,0,0,1-5,1.32A9.3,9.3,0,0,1,548,396.39Zm9.49-3.58a9.53,9.53,0,0,0,1.58-5.93,9.42,9.42,0,0,0-1.6-5.88,5.91,5.91,0,0,0-9,0,11.79,11.79,0,0,0,0,11.79,6,6,0,0,0,9,0Z"/><path class="cls-7" d="M584.83,376.61a1.7,1.7,0,0,1,.45,1.24V396q0,4.67-2.29,7t-6.79,2.38a13.57,13.57,0,0,1-7.28-1.8c-1-.57-1.47-1.23-1.47-2a1.53,1.53,0,0,1,.3-1,1,1,0,0,1,.8-.39,3.88,3.88,0,0,1,1.47.6,17.67,17.67,0,0,0,2.83,1.24,10.16,10.16,0,0,0,3.31.47,5.65,5.65,0,0,0,4.38-1.6A6.71,6.71,0,0,0,582,396.3v-3.68a6.39,6.39,0,0,1-2.64,3.08,7.89,7.89,0,0,1-4.19,1.07,8.3,8.3,0,0,1-7.8-4.92,13.77,13.77,0,0,1,0-10.88,8.3,8.3,0,0,1,7.8-4.92,7.82,7.82,0,0,1,4.13,1.07,6.75,6.75,0,0,1,2.66,3v-2.31a1.73,1.73,0,0,1,.43-1.24,1.54,1.54,0,0,1,1.21-.47A1.59,1.59,0,0,1,584.83,376.61Zm-4.5,15.3a10,10,0,0,0,0-11,5.47,5.47,0,0,0-4.52-2,5.62,5.62,0,0,0-4.56,2,9.88,9.88,0,0,0,0,11,5.62,5.62,0,0,0,4.56,2A5.5,5.5,0,0,0,580.33,391.91Z"/><path class="cls-7" d="M616.62,377.42a8.86,8.86,0,0,1,3.11,3.83,13.8,13.8,0,0,1,1.11,5.72,13.46,13.46,0,0,1-1.11,5.67,8.71,8.71,0,0,1-3.09,3.75,8.18,8.18,0,0,1-4.64,1.32,7.56,7.56,0,0,1-4.07-1.07,6.72,6.72,0,0,1-2.64-3v10.07a1.66,1.66,0,0,1-.43,1.21,1.83,1.83,0,0,1-2.43,0,1.65,1.65,0,0,1-.45-1.19V377.85a1.7,1.7,0,0,1,.45-1.24,1.59,1.59,0,0,1,1.22-.47,1.53,1.53,0,0,1,1.21.47,1.73,1.73,0,0,1,.43,1.24v2.31a6.77,6.77,0,0,1,2.64-3,7.65,7.65,0,0,1,4.07-1.07A8,8,0,0,1,616.62,377.42Zm-.77,15.37a9.33,9.33,0,0,0,1.59-5.82,9.63,9.63,0,0,0-1.59-5.89,5.87,5.87,0,0,0-9-.06,9.46,9.46,0,0,0-1.58,5.86,9.6,9.6,0,0,0,1.58,5.89,5.3,5.3,0,0,0,4.48,2.08A5.39,5.39,0,0,0,615.85,392.79Z"/><path class="cls-7" d="M637.37,377.59a1.58,1.58,0,0,1-.37,1.09,2,2,0,0,1-1.27.5l-1.23.12a5.46,5.46,0,0,0-4.07,2,6.73,6.73,0,0,0-1.33,4.17v10.41a1.68,1.68,0,0,1-.45,1.28,1.62,1.62,0,0,1-1.18.43,1.58,1.58,0,0,1-1.68-1.71V377.85a1.6,1.6,0,0,1,.49-1.26,1.7,1.7,0,0,1,1.19-.45,1.5,1.5,0,0,1,1.1.45,1.62,1.62,0,0,1,.45,1.22v2.39a6.4,6.4,0,0,1,2.44-2.87,7.93,7.93,0,0,1,3.62-1.15l.57,0C636.79,376.05,637.37,376.54,637.37,377.59Z"/><path class="cls-7" d="M643.12,396.39a8.72,8.72,0,0,1-3.32-3.79,14.66,14.66,0,0,1,0-11.43,8.67,8.67,0,0,1,3.32-3.79,9.21,9.21,0,0,1,5-1.33,9.33,9.33,0,0,1,5,1.33,8.63,8.63,0,0,1,3.33,3.79,14.54,14.54,0,0,1,0,11.43,8.68,8.68,0,0,1-3.33,3.79,9.42,9.42,0,0,1-5,1.32A9.3,9.3,0,0,1,643.12,396.39Zm9.49-3.58a11.82,11.82,0,0,0,0-11.81,5.91,5.91,0,0,0-9,0,9.42,9.42,0,0,0-1.6,5.88,9.56,9.56,0,0,0,1.58,5.91,6,6,0,0,0,9,0Z"/><path class="cls-7" d="M677.18,377.38a8.71,8.71,0,0,1,3.11,3.77,13.66,13.66,0,0,1,1.1,5.65,13.92,13.92,0,0,1-1.1,5.71,9,9,0,0,1-3.11,3.83,8,8,0,0,1-4.63,1.37,7.56,7.56,0,0,1-4.07-1.07,6.72,6.72,0,0,1-2.64-3v2.32a1.77,1.77,0,0,1-.43,1.24,1.55,1.55,0,0,1-1.2.47,1.63,1.63,0,0,1-1.23-.47,1.73,1.73,0,0,1-.45-1.24V368.69a1.65,1.65,0,0,1,.45-1.2,1.6,1.6,0,0,1,1.23-.47,1.58,1.58,0,0,1,1.2.45,1.67,1.67,0,0,1,.43,1.22v11.47a6.77,6.77,0,0,1,2.64-3,7.65,7.65,0,0,1,4.07-1.07A8.16,8.16,0,0,1,677.18,377.38Zm-.78,15.35a9.72,9.72,0,0,0,1.6-5.93,9.24,9.24,0,0,0-1.6-5.78,5.37,5.37,0,0,0-4.5-2.06,5.31,5.31,0,0,0-4.48,2.06,9.46,9.46,0,0,0-1.58,5.86,9.6,9.6,0,0,0,1.58,5.89,5.85,5.85,0,0,0,9,0Z"/><path class="cls-7" d="M686.81,397.18a1.67,1.67,0,0,1-.47-1.26V368.73A1.58,1.58,0,0,1,688,367a1.61,1.61,0,0,1,1.16.45,1.64,1.64,0,0,1,.48,1.26v27.19a1.64,1.64,0,0,1-.48,1.26,1.61,1.61,0,0,1-1.16.45A1.68,1.68,0,0,1,686.81,397.18Z"/><path class="cls-7" d="M712,393a1.53,1.53,0,0,1,.32,1,2.48,2.48,0,0,1-1.43,2,12.39,12.39,0,0,1-3.11,1.34,12,12,0,0,1-3.19.45,9.5,9.5,0,0,1-7.3-2.86q-2.69-2.88-2.68-7.93a12.91,12.91,0,0,1,1.18-5.67,9.12,9.12,0,0,1,3.34-3.83,8.92,8.92,0,0,1,4.89-1.37,7.78,7.78,0,0,1,6.18,2.65,10.69,10.69,0,0,1,2.29,7.2,1.9,1.9,0,0,1-.33,1.24,1.32,1.32,0,0,1-1.07.38H698q.38,7.37,6.67,7.37a7.49,7.49,0,0,0,2.74-.45,18.61,18.61,0,0,0,2.46-1.22,3.72,3.72,0,0,1,1.43-.64A1,1,0,0,1,712,393Zm-12.14-12.5A8,8,0,0,0,698,385.3h11.58a7.65,7.65,0,0,0-1.51-4.86,5,5,0,0,0-4-1.69A5.44,5.44,0,0,0,699.9,380.46Z"/><path class="cls-7" d="M746.2,384.31v11.61a1.7,1.7,0,0,1-.45,1.26,1.61,1.61,0,0,1-1.19.45,1.69,1.69,0,0,1-1.21-.45,1.67,1.67,0,0,1-.47-1.26V384.4a6.85,6.85,0,0,0-1-4.15,3.61,3.61,0,0,0-3.07-1.29,4.78,4.78,0,0,0-3.92,1.76,7.26,7.26,0,0,0-1.44,4.75v10.45a1.58,1.58,0,0,1-1.67,1.71,1.61,1.61,0,0,1-1.19-.45,1.7,1.7,0,0,1-.45-1.26V384.4a6.92,6.92,0,0,0-1-4.15,3.66,3.66,0,0,0-3.11-1.29,4.82,4.82,0,0,0-3.91,1.76,7.21,7.21,0,0,0-1.45,4.75v10.45a1.7,1.7,0,0,1-.45,1.26,1.61,1.61,0,0,1-1.19.45,1.6,1.6,0,0,1-1.68-1.71V377.85a1.64,1.64,0,0,1,.48-1.24,1.59,1.59,0,0,1,1.2-.47,1.55,1.55,0,0,1,1.15.45,1.62,1.62,0,0,1,.45,1.22v2.05a6.69,6.69,0,0,1,2.49-2.83,7,7,0,0,1,3.69-1q4.67,0,6.09,4.11a6.86,6.86,0,0,1,2.62-3,7.35,7.35,0,0,1,4-1.11Q746.2,376.05,746.2,384.31Z"/><path class="cls-7" d="M752.72,397.18a1.67,1.67,0,0,1-.47-1.26V368.73a1.67,1.67,0,0,1,.47-1.26,1.69,1.69,0,0,1,1.21-.45,1.65,1.65,0,0,1,1.17.45,1.67,1.67,0,0,1,.47,1.26v27.19a1.67,1.67,0,0,1-.47,1.26,1.65,1.65,0,0,1-1.17.45A1.69,1.69,0,0,1,752.72,397.18Z"/><path class="cls-7" d="M778.64,381.92a14.71,14.71,0,0,1-.3,10.68,8.7,8.7,0,0,1-3.34,3.79,10.1,10.1,0,0,1-9.16.42L765,398.4a1.14,1.14,0,0,1-1.84.3,1.07,1.07,0,0,1-.37-.82,1.32,1.32,0,0,1,.2-.64l.94-1.67a9.26,9.26,0,0,1-2.47-3.66,13.62,13.62,0,0,1-.88-5,13.29,13.29,0,0,1,1.16-5.71,8.73,8.73,0,0,1,3.32-3.79,10,10,0,0,1,9.22-.39l.86-1.58a1.08,1.08,0,0,1,1-.64,1.18,1.18,0,0,1,.82.34,1.09,1.09,0,0,1,.36.81,1.19,1.19,0,0,1-.2.64l-.94,1.72A9.56,9.56,0,0,1,778.64,381.92Zm-13.17,10.87,7.36-13.23a6,6,0,0,0-2.82-.64,5.32,5.32,0,0,0-4.5,2.08,11.79,11.79,0,0,0,0,11.79Zm9.1,0a9.53,9.53,0,0,0,1.58-5.93,9.27,9.27,0,0,0-1.56-5.78l-7.32,13.19a6,6,0,0,0,2.74.56A5.41,5.41,0,0,0,774.57,392.81Z"/><path class="cls-7" d="M787.58,397.24a10.5,10.5,0,0,1-3-1.32,4.22,4.22,0,0,1-1.05-1,1.92,1.92,0,0,1-.31-1.09,1.4,1.4,0,0,1,.31-.92,1,1,0,0,1,.8-.36,3,3,0,0,1,1.43.64,13.55,13.55,0,0,0,2.44,1.22,8.62,8.62,0,0,0,3,.45,6.12,6.12,0,0,0,3.44-.82,2.64,2.64,0,0,0,1.23-2.35,2.41,2.41,0,0,0-.45-1.52,3.67,3.67,0,0,0-1.56-1,21.68,21.68,0,0,0-3.23-.92,11.82,11.82,0,0,1-5.15-2.18,4.71,4.71,0,0,1-1.56-3.73,5.59,5.59,0,0,1,1-3.25,6.78,6.78,0,0,1,2.72-2.23,9.27,9.27,0,0,1,4-.81,10.7,10.7,0,0,1,3.09.45,9,9,0,0,1,2.64,1.26,2.8,2.8,0,0,1,1.39,2.14,1.43,1.43,0,0,1-.33,1,1,1,0,0,1-.77.38,3,3,0,0,1-1.48-.73,12.92,12.92,0,0,0-2.17-1.2,6.66,6.66,0,0,0-2.53-.42,5,5,0,0,0-3.09.89,2.88,2.88,0,0,0-1.17,2.4,2.51,2.51,0,0,0,.43,1.52,3.59,3.59,0,0,0,1.43,1,16.48,16.48,0,0,0,2.89.88,20.25,20.25,0,0,1,4.31,1.41,5,5,0,0,1,2.19,1.88,5.51,5.51,0,0,1,.66,2.83,5.19,5.19,0,0,1-2.17,4.35,9.28,9.28,0,0,1-5.73,1.64A13.11,13.11,0,0,1,787.58,397.24Z"/><path class="cls-7" d="M820.29,393a1.48,1.48,0,0,1,.33,1,2.48,2.48,0,0,1-1.43,2,12.39,12.39,0,0,1-3.11,1.34,12,12,0,0,1-3.19.45,9.52,9.52,0,0,1-7.31-2.86,11.21,11.21,0,0,1-2.68-7.93,12.92,12.92,0,0,1,1.19-5.67,9.06,9.06,0,0,1,3.34-3.83,8.91,8.91,0,0,1,4.88-1.37,7.77,7.77,0,0,1,6.18,2.65,10.63,10.63,0,0,1,2.29,7.2,2,2,0,0,1-.32,1.24,1.33,1.33,0,0,1-1.07.38H806.22q.36,7.37,6.67,7.37a7.49,7.49,0,0,0,2.74-.45,18,18,0,0,0,2.45-1.22,3.74,3.74,0,0,1,1.44-.64A1,1,0,0,1,820.29,393Zm-12.13-12.5a8,8,0,0,0-1.86,4.84h11.58a7.71,7.71,0,0,0-1.51-4.86,5,5,0,0,0-4-1.69A5.44,5.44,0,0,0,808.16,380.46Z"/><path class="cls-7" d="M842.84,384.31v11.61a1.78,1.78,0,0,1-.43,1.26,1.6,1.6,0,0,1-1.21.45,1.66,1.66,0,0,1-1.23-.45,1.7,1.7,0,0,1-.45-1.26V384.53a6.7,6.7,0,0,0-1.08-4.24A4.21,4.21,0,0,0,835,379a5.7,5.7,0,0,0-4.38,1.76,6.68,6.68,0,0,0-1.63,4.75v10.45a1.78,1.78,0,0,1-.43,1.26,1.6,1.6,0,0,1-1.21.45,1.66,1.66,0,0,1-1.23-.45,1.7,1.7,0,0,1-.45-1.26V377.85a1.7,1.7,0,0,1,.45-1.24,1.6,1.6,0,0,1,1.23-.47,1.49,1.49,0,0,1,1.17.47,1.73,1.73,0,0,1,.43,1.2V380a6.77,6.77,0,0,1,2.74-2.93,7.94,7.94,0,0,1,4-1Q842.84,376.05,842.84,384.31Z"/><path class="cls-7" d="M866.12,367.49a1.65,1.65,0,0,1,.45,1.2v27.23a1.73,1.73,0,0,1-.45,1.24,1.63,1.63,0,0,1-1.23.47,1.57,1.57,0,0,1-1.21-.47,1.77,1.77,0,0,1-.43-1.24V393.6a6.72,6.72,0,0,1-2.64,3,7.54,7.54,0,0,1-4.07,1.07,7.94,7.94,0,0,1-4.62-1.37,8.93,8.93,0,0,1-3.11-3.83,13.75,13.75,0,0,1-1.11-5.71,13.5,13.5,0,0,1,1.11-5.65,8.64,8.64,0,0,1,3.11-3.77,8.13,8.13,0,0,1,4.62-1.33,7.63,7.63,0,0,1,4.07,1.07,6.77,6.77,0,0,1,2.64,3V368.69a1.67,1.67,0,0,1,.43-1.22,1.85,1.85,0,0,1,2.44,0Zm-4.44,25.28a9.6,9.6,0,0,0,1.57-5.89,9.46,9.46,0,0,0-1.57-5.86A5.32,5.32,0,0,0,857.2,379a5.41,5.41,0,0,0-4.52,2.06,9.12,9.12,0,0,0-1.62,5.78,9.59,9.59,0,0,0,1.62,5.93,5.87,5.87,0,0,0,9,0Z"/><path class="cls-7" d="M888.9,393a1.48,1.48,0,0,1,.33,1,2.48,2.48,0,0,1-1.43,2,12.39,12.39,0,0,1-3.11,1.34,12,12,0,0,1-3.19.45,9.5,9.5,0,0,1-7.3-2.86q-2.69-2.88-2.68-7.93a12.91,12.91,0,0,1,1.18-5.67,9.06,9.06,0,0,1,3.34-3.83,8.92,8.92,0,0,1,4.89-1.37,7.75,7.75,0,0,1,6.17,2.65,10.64,10.64,0,0,1,2.3,7.2,1.9,1.9,0,0,1-.33,1.24,1.32,1.32,0,0,1-1.07.38H874.83q.38,7.37,6.67,7.37a7.49,7.49,0,0,0,2.74-.45,18.61,18.61,0,0,0,2.46-1.22,3.66,3.66,0,0,1,1.43-.64A1,1,0,0,1,888.9,393Zm-12.13-12.5a8,8,0,0,0-1.86,4.84h11.58a7.65,7.65,0,0,0-1.51-4.86,5,5,0,0,0-4-1.69A5.44,5.44,0,0,0,876.77,380.46Z"/></g><g class="cls-6"><path class="cls-7" d="M220,509a8.12,8.12,0,0,1-6.14-2.75,9.55,9.55,0,0,1,0-13.09,8.59,8.59,0,0,1,12.55,0,9.22,9.22,0,0,1,2.59,6.61,9,9,0,0,1-2.63,6.54A8.59,8.59,0,0,1,220,509Zm0-3.09a5.73,5.73,0,0,0,4.27-1.8,6,6,0,0,0,1.74-4.35,6.2,6.2,0,0,0-1.71-4.41,5.73,5.73,0,0,0-8.37,0,6.4,6.4,0,0,0,0,8.74A5.45,5.45,0,0,0,220,505.89Z"/></g><g class="cls-6"><path class="cls-7" d="M264.91,513.34a1.76,1.76,0,0,1-.47-1.3v-25.6h-8.8a1.58,1.58,0,0,1-1.14-.39,1.43,1.43,0,0,1-.41-1.11,1.41,1.41,0,0,1,.41-1.11,1.58,1.58,0,0,1,1.14-.39h21a1.62,1.62,0,0,1,1.15.39,1.44,1.44,0,0,1,.41,1.11,1.47,1.47,0,0,1-.41,1.11,1.62,1.62,0,0,1-1.15.39h-8.8V512a1.84,1.84,0,0,1-.45,1.3,1.58,1.58,0,0,1-1.22.5A1.64,1.64,0,0,1,264.91,513.34Z"/><path class="cls-7" d="M294.55,509.17a1.48,1.48,0,0,1,.33,1,2.46,2.46,0,0,1-1.43,2,12.22,12.22,0,0,1-3.11,1.35,12,12,0,0,1-3.19.45,9.49,9.49,0,0,1-7.31-2.87c-1.78-1.91-2.68-4.55-2.68-7.92a12.92,12.92,0,0,1,1.19-5.67,9.1,9.1,0,0,1,3.33-3.83,9,9,0,0,1,4.89-1.37,7.75,7.75,0,0,1,6.18,2.65,10.63,10.63,0,0,1,2.29,7.2,1.9,1.9,0,0,1-.33,1.24,1.33,1.33,0,0,1-1.06.38H280.48q.36,7.36,6.67,7.37a7.53,7.53,0,0,0,2.74-.45,18,18,0,0,0,2.45-1.22,3.78,3.78,0,0,1,1.43-.64A1,1,0,0,1,294.55,509.17Zm-12.13-12.5a8,8,0,0,0-1.86,4.84h11.58a7.63,7.63,0,0,0-1.52-4.86,5,5,0,0,0-4-1.69A5.43,5.43,0,0,0,282.42,496.67Z"/><path class="cls-7" d="M317.3,492.82a1.7,1.7,0,0,1,.45,1.24v18.15q0,4.66-2.29,7t-6.79,2.38a13.63,13.63,0,0,1-7.29-1.8c-1-.57-1.47-1.23-1.47-2a1.48,1.48,0,0,1,.31-1,1,1,0,0,1,.8-.39,3.88,3.88,0,0,1,1.47.6,18.1,18.1,0,0,0,2.82,1.24,10.2,10.2,0,0,0,3.31.47,5.65,5.65,0,0,0,4.38-1.6,6.67,6.67,0,0,0,1.48-4.69v-3.68a6.5,6.5,0,0,1-2.64,3.08,8,8,0,0,1-4.2,1.07,8.3,8.3,0,0,1-7.79-4.92,13.66,13.66,0,0,1,0-10.88,8.3,8.3,0,0,1,7.79-4.92,7.88,7.88,0,0,1,4.14,1.07,6.81,6.81,0,0,1,2.66,3v-2.31a1.73,1.73,0,0,1,.43-1.24,1.51,1.51,0,0,1,1.2-.48A1.6,1.6,0,0,1,317.3,492.82Zm-4.5,15.3a10,10,0,0,0,0-11,5.5,5.5,0,0,0-4.52-2,5.59,5.59,0,0,0-4.56,2,9.88,9.88,0,0,0,0,11,5.59,5.59,0,0,0,4.56,2A5.5,5.5,0,0,0,312.8,508.12Z"/><path class="cls-7" d="M341.07,500.52v11.6a1.75,1.75,0,0,1-.43,1.27,1.6,1.6,0,0,1-1.21.45,1.65,1.65,0,0,1-1.22-.45,1.71,1.71,0,0,1-.45-1.27V500.74a6.69,6.69,0,0,0-1.09-4.24,4.19,4.19,0,0,0-3.46-1.33,5.7,5.7,0,0,0-4.37,1.76,6.69,6.69,0,0,0-1.64,4.75v10.44a1.75,1.75,0,0,1-.43,1.27,1.6,1.6,0,0,1-1.21.45,1.64,1.64,0,0,1-1.22-.45,1.71,1.71,0,0,1-.45-1.27V494.06a1.7,1.7,0,0,1,.45-1.24,1.58,1.58,0,0,1,1.22-.48,1.5,1.5,0,0,1,1.17.48,1.67,1.67,0,0,1,.43,1.19v2.19a6.83,6.83,0,0,1,2.74-2.93,7.84,7.84,0,0,1,4-1Q341.07,492.26,341.07,500.52Z"/><path class="cls-7" d="M363.33,509.17a1.48,1.48,0,0,1,.33,1c0,.71-.48,1.37-1.44,2a12.31,12.31,0,0,1-6.3,1.8,9.48,9.48,0,0,1-7.3-2.87q-2.69-2.87-2.68-7.92a12.91,12.91,0,0,1,1.18-5.67,9.19,9.19,0,0,1,3.34-3.83,8.92,8.92,0,0,1,4.89-1.37,7.75,7.75,0,0,1,6.18,2.65,10.69,10.69,0,0,1,2.29,7.2,1.9,1.9,0,0,1-.33,1.24,1.34,1.34,0,0,1-1.06.38H349.25q.38,7.36,6.67,7.37a7.45,7.45,0,0,0,2.74-.45,17.47,17.47,0,0,0,2.46-1.22,3.72,3.72,0,0,1,1.43-.64A1,1,0,0,1,363.33,509.17Zm-12.13-12.5a8.07,8.07,0,0,0-1.87,4.84h11.58a7.63,7.63,0,0,0-1.51-4.86,5,5,0,0,0-4-1.69A5.41,5.41,0,0,0,351.2,496.67Z"/><path class="cls-7" d="M380.27,493.8a1.58,1.58,0,0,1-.37,1.09,1.89,1.89,0,0,1-1.27.49l-1.23.13a5.41,5.41,0,0,0-4.07,2,6.73,6.73,0,0,0-1.33,4.17v10.4a1.7,1.7,0,0,1-.45,1.29,1.84,1.84,0,0,1-2.39,0,1.65,1.65,0,0,1-.47-1.27V494.06a1.64,1.64,0,0,1,.49-1.27,1.67,1.67,0,0,1,1.18-.45,1.51,1.51,0,0,1,1.11.45,1.65,1.65,0,0,1,.45,1.22v2.4a6.44,6.44,0,0,1,2.43-2.87,8,8,0,0,1,3.62-1.15l.58-.05C379.69,492.26,380.27,492.75,380.27,493.8Z"/><path class="cls-7" d="M397,512.6a8.7,8.7,0,0,1-3.31-3.79,14.54,14.54,0,0,1,0-11.43,8.59,8.59,0,0,1,3.31-3.79,9.21,9.21,0,0,1,5-1.33,9.31,9.31,0,0,1,5,1.33,8.59,8.59,0,0,1,3.34,3.79,14.66,14.66,0,0,1,0,11.43,8.7,8.7,0,0,1-3.34,3.79,9.39,9.39,0,0,1-5,1.32A9.3,9.3,0,0,1,397,512.6Zm9.49-3.58a11.78,11.78,0,0,0,0-11.82,5.93,5.93,0,0,0-9,0,11.74,11.74,0,0,0,0,11.8,6,6,0,0,0,9,0Z"/><path class="cls-7" d="M433.78,492.82a1.7,1.7,0,0,1,.45,1.24v18.15q0,4.66-2.29,7t-6.79,2.38a13.57,13.57,0,0,1-7.28-1.8c-1-.57-1.48-1.23-1.48-2a1.48,1.48,0,0,1,.31-1,1,1,0,0,1,.8-.39,3.88,3.88,0,0,1,1.47.6,18.52,18.52,0,0,0,2.82,1.24,10.22,10.22,0,0,0,3.32.47,5.64,5.64,0,0,0,4.37-1.6,6.67,6.67,0,0,0,1.48-4.69v-3.68a6.5,6.5,0,0,1-2.64,3.08,8,8,0,0,1-4.2,1.07,8.3,8.3,0,0,1-7.79-4.92,13.77,13.77,0,0,1,0-10.88,8.3,8.3,0,0,1,7.79-4.92,7.85,7.85,0,0,1,4.14,1.07,6.75,6.75,0,0,1,2.66,3v-2.31a1.73,1.73,0,0,1,.43-1.24,1.52,1.52,0,0,1,1.2-.48A1.6,1.6,0,0,1,433.78,492.82Zm-4.5,15.3a10,10,0,0,0,0-11,5.49,5.49,0,0,0-4.52-2,5.59,5.59,0,0,0-4.56,2,9.88,9.88,0,0,0,0,11,5.59,5.59,0,0,0,4.56,2A5.5,5.5,0,0,0,429.28,508.12Z"/><path class="cls-7" d="M451.39,513.39a1.68,1.68,0,0,1-.47-1.27V484.94a1.7,1.7,0,0,1,.47-1.27,1.73,1.73,0,0,1,1.21-.44,1.57,1.57,0,0,1,1.64,1.71v27.18a1.68,1.68,0,0,1-.47,1.27,1.65,1.65,0,0,1-1.17.45A1.69,1.69,0,0,1,451.39,513.39Z"/><path class="cls-7" d="M476,500.48v11.64a1.82,1.82,0,0,1-.42,1.25,1.53,1.53,0,0,1-1.17.47,1.59,1.59,0,0,1-1.19-.47,1.74,1.74,0,0,1-.45-1.25v-2.05a6.07,6.07,0,0,1-2.37,2.85,6.74,6.74,0,0,1-3.68,1,7.74,7.74,0,0,1-3.54-.81,6.41,6.41,0,0,1-2.56-2.27,5.77,5.77,0,0,1-.94-3.21,5.34,5.34,0,0,1,1.15-3.66,6.83,6.83,0,0,1,3.76-1.89,36.06,36.06,0,0,1,7.28-.57h.9v-1.42a5.79,5.79,0,0,0-1-3.76,4,4,0,0,0-3.25-1.2,11.67,11.67,0,0,0-5.65,1.58,3.61,3.61,0,0,1-1.55.73,1,1,0,0,1-.82-.39,1.43,1.43,0,0,1-.33-1,1.68,1.68,0,0,1,.35-1.05,4.1,4.1,0,0,1,1.12-.92,13,13,0,0,1,3.26-1.35,13.72,13.72,0,0,1,3.62-.49Q476,492.26,476,500.48Zm-4.8,9a6.41,6.41,0,0,0,1.57-4.48v-1.24h-.73a35.72,35.72,0,0,0-5.49.32,5.39,5.39,0,0,0-2.68,1.07,2.9,2.9,0,0,0-.79,2.21,3.61,3.61,0,0,0,1.16,2.76,4.11,4.11,0,0,0,2.93,1.09A5.23,5.23,0,0,0,471.24,509.45Z"/><path class="cls-7" d="M497.89,492.39a1.63,1.63,0,0,1,1.11.43,1.34,1.34,0,0,1,.49,1.07,1.51,1.51,0,0,1-.16.68l-8,18a2,2,0,0,1-.74.88,1.94,1.94,0,0,1-1.06.32,1.89,1.89,0,0,1-1-.32,2.28,2.28,0,0,1-.77-.88l-7.94-18a1.29,1.29,0,0,1-.16-.64,1.4,1.4,0,0,1,.55-1.11,1.8,1.8,0,0,1,1.2-.48,1.44,1.44,0,0,1,.8.26,1.67,1.67,0,0,1,.6.73l6.83,16.05,6.83-16A1.49,1.49,0,0,1,497.89,492.39Z"/><path class="cls-7" d="M519.09,509.17a1.53,1.53,0,0,1,.32,1,2.43,2.43,0,0,1-1.43,2,12.31,12.31,0,0,1-6.3,1.8,9.47,9.47,0,0,1-7.3-2.87q-2.69-2.87-2.68-7.92a12.91,12.91,0,0,1,1.18-5.67,9.12,9.12,0,0,1,3.34-3.83,8.92,8.92,0,0,1,4.89-1.37,7.75,7.75,0,0,1,6.18,2.65,10.69,10.69,0,0,1,2.29,7.2,1.9,1.9,0,0,1-.33,1.24,1.34,1.34,0,0,1-1.06.38H505q.38,7.36,6.67,7.37a7.49,7.49,0,0,0,2.74-.45,18,18,0,0,0,2.46-1.22,3.72,3.72,0,0,1,1.43-.64A1,1,0,0,1,519.09,509.17ZM507,496.67a8,8,0,0,0-1.87,4.84h11.58a7.63,7.63,0,0,0-1.51-4.86,5,5,0,0,0-4-1.69A5.4,5.4,0,0,0,507,496.67Z"/><path class="cls-7" d="M536,493.8a1.58,1.58,0,0,1-.36,1.09,1.89,1.89,0,0,1-1.27.49l-1.23.13a5.41,5.41,0,0,0-4.07,2,6.73,6.73,0,0,0-1.33,4.17v10.4a1.53,1.53,0,0,1-1.64,1.72,1.59,1.59,0,0,1-1.67-1.72V494.06a1.64,1.64,0,0,1,.49-1.27,1.67,1.67,0,0,1,1.18-.45,1.51,1.51,0,0,1,1.11.45,1.65,1.65,0,0,1,.45,1.22v2.4a6.44,6.44,0,0,1,2.43-2.87,8,8,0,0,1,3.62-1.15l.58-.05C535.45,492.26,536,492.75,536,493.8Z"/><path class="cls-7" d="M549.53,487.25a2.12,2.12,0,0,1-.62-1.58,2.08,2.08,0,0,1,.62-1.55,2.45,2.45,0,0,1,3.19,0,2.07,2.07,0,0,1,.61,1.55,2.11,2.11,0,0,1-.61,1.58,2.42,2.42,0,0,1-3.19,0Zm.39,26.14a1.65,1.65,0,0,1-.48-1.27V494.06a1.6,1.6,0,0,1,1.68-1.72,1.61,1.61,0,0,1,1.19.45,1.73,1.73,0,0,1,.45,1.27v18.06a1.53,1.53,0,0,1-1.64,1.72A1.65,1.65,0,0,1,549.92,513.39Z"/><path class="cls-7" d="M559.41,513.39a1.65,1.65,0,0,1-.47-1.27V484.94a1.66,1.66,0,0,1,.47-1.27,1.69,1.69,0,0,1,1.2-.44,1.65,1.65,0,0,1,1.17.44,1.7,1.7,0,0,1,.47,1.27v27.18a1.68,1.68,0,0,1-.47,1.27,1.61,1.61,0,0,1-1.17.45A1.65,1.65,0,0,1,559.41,513.39Z"/><path class="cls-7" d="M568.9,513.39a1.65,1.65,0,0,1-.47-1.27V484.94a1.66,1.66,0,0,1,.47-1.27,1.7,1.7,0,0,1,1.21-.44,1.64,1.64,0,0,1,1.16.44,1.7,1.7,0,0,1,.47,1.27v27.18a1.68,1.68,0,0,1-.47,1.27,1.61,1.61,0,0,1-1.16.45A1.66,1.66,0,0,1,568.9,513.39Z"/><path class="cls-7" d="M594.26,492.82a1.73,1.73,0,0,1,.43,1.24v18.11a1.72,1.72,0,0,1-.43,1.2,1.76,1.76,0,0,1-2.37,0,1.66,1.66,0,0,1-.43-1.18v-2.14a6.69,6.69,0,0,1-2.64,2.87,7.52,7.52,0,0,1-3.82,1,6.71,6.71,0,0,1-5.36-2.07q-1.8-2.09-1.8-6.15V494.06a1.7,1.7,0,0,1,.45-1.24,1.6,1.6,0,0,1,1.22-.48,1.53,1.53,0,0,1,1.21.48,1.73,1.73,0,0,1,.43,1.24v11.56a6.52,6.52,0,0,0,1.06,4.09,4.08,4.08,0,0,0,3.36,1.3,5.36,5.36,0,0,0,4.21-1.78,6.7,6.7,0,0,0,1.6-4.68V494.06a1.7,1.7,0,0,1,.45-1.24,1.6,1.6,0,0,1,1.23-.48A1.51,1.51,0,0,1,594.26,492.82Z"/><path class="cls-7" d="M604,513.45a10.25,10.25,0,0,1-3-1.33,4,4,0,0,1-1-1,1.92,1.92,0,0,1-.31-1.09,1.4,1.4,0,0,1,.31-.92,1,1,0,0,1,.8-.36,3,3,0,0,1,1.43.64,13.55,13.55,0,0,0,2.44,1.22,8.62,8.62,0,0,0,3,.45,6.12,6.12,0,0,0,3.44-.82,2.64,2.64,0,0,0,1.23-2.35,2.39,2.39,0,0,0-.45-1.52,3.67,3.67,0,0,0-1.56-1,21.68,21.68,0,0,0-3.23-.92,11.82,11.82,0,0,1-5.15-2.18,4.72,4.72,0,0,1-1.56-3.73,5.59,5.59,0,0,1,1-3.25,6.78,6.78,0,0,1,2.72-2.23,9.27,9.27,0,0,1,4-.81,10.7,10.7,0,0,1,3.09.45,9,9,0,0,1,2.64,1.26,2.8,2.8,0,0,1,1.39,2.14,1.38,1.38,0,0,1-.33.94,1,1,0,0,1-.77.39,3,3,0,0,1-1.48-.73,12.92,12.92,0,0,0-2.17-1.2,6.64,6.64,0,0,0-2.53-.43,4.91,4.91,0,0,0-3.09.9,2.88,2.88,0,0,0-1.17,2.4,2.51,2.51,0,0,0,.43,1.52,3.59,3.59,0,0,0,1.43,1,16.48,16.48,0,0,0,2.89.88,19.7,19.7,0,0,1,4.31,1.41,5,5,0,0,1,2.19,1.88,5.51,5.51,0,0,1,.66,2.83,5.16,5.16,0,0,1-2.17,4.34,9.22,9.22,0,0,1-5.73,1.65A13.11,13.11,0,0,1,604,513.45Z"/><path class="cls-7" d="M630.94,512.47a1.25,1.25,0,0,1-.51,1.09,2.35,2.35,0,0,1-1.53.28l-1.11-.09A6.75,6.75,0,0,1,623,511.7q-1.56-1.8-1.56-5.44V495.51h-2.74a1.52,1.52,0,0,1-1.08-.36,1.24,1.24,0,0,1-.39-1,1.39,1.39,0,0,1,.39-1,1.44,1.44,0,0,1,1.08-.39h2.74v-4.84a1.7,1.7,0,0,1,.45-1.26,1.66,1.66,0,0,1,1.23-.45,1.63,1.63,0,0,1,1.19.45,1.7,1.7,0,0,1,.45,1.26v4.84h4.54a1.41,1.41,0,0,1,1,.39,1.39,1.39,0,0,1,.39,1,1.24,1.24,0,0,1-.39,1,1.48,1.48,0,0,1-1,.36h-4.54v10.92a5.07,5.07,0,0,0,.92,3.4,3.82,3.82,0,0,0,2.76,1.18l1.1.09C630.47,511.18,630.94,511.64,630.94,512.47Z"/><path class="cls-7" d="M645.8,493.8a1.58,1.58,0,0,1-.37,1.09,1.89,1.89,0,0,1-1.27.49l-1.23.13a5.41,5.41,0,0,0-4.07,2,6.73,6.73,0,0,0-1.33,4.17v10.4a1.7,1.7,0,0,1-.45,1.29,1.84,1.84,0,0,1-2.39,0,1.65,1.65,0,0,1-.47-1.27V494.06a1.64,1.64,0,0,1,.49-1.27,1.69,1.69,0,0,1,1.18-.45,1.51,1.51,0,0,1,1.11.45,1.65,1.65,0,0,1,.45,1.22v2.4a6.44,6.44,0,0,1,2.43-2.87,8,8,0,0,1,3.62-1.15l.58-.05C645.22,492.26,645.8,492.75,645.8,493.8Z"/><path class="cls-7" d="M664.13,500.48v11.64a1.82,1.82,0,0,1-.43,1.25,1.53,1.53,0,0,1-1.17.47,1.59,1.59,0,0,1-1.19-.47,1.74,1.74,0,0,1-.45-1.25v-2.05a6,6,0,0,1-2.37,2.85,6.74,6.74,0,0,1-3.68,1,7.8,7.8,0,0,1-3.54-.81,6.41,6.41,0,0,1-2.56-2.27,5.77,5.77,0,0,1-.94-3.21A5.34,5.34,0,0,1,649,504a6.83,6.83,0,0,1,3.76-1.89,36.06,36.06,0,0,1,7.28-.57h.9v-1.42a5.79,5.79,0,0,0-1-3.76,4,4,0,0,0-3.25-1.2,11.67,11.67,0,0,0-5.65,1.58,3.56,3.56,0,0,1-1.55.73,1,1,0,0,1-.82-.39,1.43,1.43,0,0,1-.33-1,1.68,1.68,0,0,1,.35-1.05,4.1,4.1,0,0,1,1.12-.92,13,13,0,0,1,3.26-1.35,13.72,13.72,0,0,1,3.62-.49Q664.13,492.26,664.13,500.48Zm-4.81,9a6.41,6.41,0,0,0,1.57-4.48v-1.24h-.73a35.72,35.72,0,0,0-5.49.32,5.39,5.39,0,0,0-2.68,1.07,2.9,2.9,0,0,0-.79,2.21,3.61,3.61,0,0,0,1.16,2.76,4.12,4.12,0,0,0,2.93,1.09A5.23,5.23,0,0,0,659.32,509.45Z"/><path class="cls-7" d="M680.82,512.47a1.25,1.25,0,0,1-.51,1.09,2.38,2.38,0,0,1-1.54.28l-1.1-.09a6.79,6.79,0,0,1-4.83-2.05c-1-1.2-1.55-3-1.55-5.44V495.51h-2.75a1.53,1.53,0,0,1-1.08-.36,1.24,1.24,0,0,1-.39-1,1.39,1.39,0,0,1,.39-1,1.46,1.46,0,0,1,1.08-.39h2.75v-4.84a1.7,1.7,0,0,1,.45-1.26,1.64,1.64,0,0,1,1.22-.45,1.61,1.61,0,0,1,1.19.45,1.7,1.7,0,0,1,.45,1.26v4.84h4.54a1.34,1.34,0,0,1,1.43,1.42,1.24,1.24,0,0,1-.39,1,1.46,1.46,0,0,1-1,.36H674.6v10.92a5.12,5.12,0,0,0,.92,3.4,3.82,3.82,0,0,0,2.76,1.18l1.11.09C680.34,511.18,680.82,511.64,680.82,512.47Z"/><path class="cls-7" d="M684.17,487.25a2.11,2.11,0,0,1-.61-1.58,2.07,2.07,0,0,1,.61-1.55,2.46,2.46,0,0,1,3.2,0,2.11,2.11,0,0,1,.61,1.55,2.15,2.15,0,0,1-.61,1.58,2.43,2.43,0,0,1-3.2,0Zm.39,26.14a1.68,1.68,0,0,1-.47-1.27V494.06a1.59,1.59,0,0,1,1.68-1.72,1.61,1.61,0,0,1,1.19.45,1.73,1.73,0,0,1,.45,1.27v18.06a1.7,1.7,0,0,1-2.85,1.27Z"/><path class="cls-7" d="M696.88,512.6a8.72,8.72,0,0,1-3.32-3.79,14.66,14.66,0,0,1,0-11.43,8.61,8.61,0,0,1,3.32-3.79,9.21,9.21,0,0,1,5-1.33,9.33,9.33,0,0,1,5,1.33,8.51,8.51,0,0,1,3.33,3.79,14.54,14.54,0,0,1,0,11.43,8.62,8.62,0,0,1-3.33,3.79,9.42,9.42,0,0,1-5,1.32A9.3,9.3,0,0,1,696.88,512.6Zm9.49-3.58a11.84,11.84,0,0,0,0-11.82,5.93,5.93,0,0,0-9,0,9.47,9.47,0,0,0-1.6,5.89,9.56,9.56,0,0,0,1.58,5.91,6,6,0,0,0,9,0Z"/><path class="cls-7" d="M733.47,500.52v11.6a1.75,1.75,0,0,1-.43,1.27,1.56,1.56,0,0,1-1.2.45,1.66,1.66,0,0,1-1.23-.45,1.71,1.71,0,0,1-.45-1.27V500.74a6.7,6.7,0,0,0-1.08-4.24,4.21,4.21,0,0,0-3.46-1.33,5.7,5.7,0,0,0-4.38,1.76,6.69,6.69,0,0,0-1.64,4.75v10.44a1.75,1.75,0,0,1-.43,1.27,1.56,1.56,0,0,1-1.2.45,1.66,1.66,0,0,1-1.23-.45,1.71,1.71,0,0,1-.45-1.27V494.06a1.7,1.7,0,0,1,.45-1.24,1.6,1.6,0,0,1,1.23-.48,1.47,1.47,0,0,1,1.16.48,1.67,1.67,0,0,1,.43,1.19v2.19a6.89,6.89,0,0,1,2.74-2.93,7.86,7.86,0,0,1,4-1Q733.48,492.26,733.47,500.52Z"/><path class="cls-7" d="M755.73,509.17a1.48,1.48,0,0,1,.33,1,2.46,2.46,0,0,1-1.43,2,12.22,12.22,0,0,1-3.11,1.35,12,12,0,0,1-3.19.45,9.49,9.49,0,0,1-7.31-2.87c-1.78-1.91-2.68-4.55-2.68-7.92a12.92,12.92,0,0,1,1.19-5.67,9.1,9.1,0,0,1,3.33-3.83,9,9,0,0,1,4.89-1.37,7.75,7.75,0,0,1,6.18,2.65,10.63,10.63,0,0,1,2.29,7.2,2,2,0,0,1-.32,1.24,1.36,1.36,0,0,1-1.07.38H741.66q.36,7.36,6.67,7.37a7.53,7.53,0,0,0,2.74-.45,18,18,0,0,0,2.45-1.22,3.78,3.78,0,0,1,1.43-.64A1,1,0,0,1,755.73,509.17Zm-12.13-12.5a8,8,0,0,0-1.86,4.84h11.58a7.63,7.63,0,0,0-1.52-4.86,5,5,0,0,0-4-1.69A5.43,5.43,0,0,0,743.6,496.67Z"/><path class="cls-7" d="M772.67,493.8a1.53,1.53,0,0,1-.37,1.09,1.87,1.87,0,0,1-1.27.49l-1.22.13a5.44,5.44,0,0,0-4.08,2,6.78,6.78,0,0,0-1.32,4.17v10.4a1.74,1.74,0,0,1-.45,1.29,1.86,1.86,0,0,1-2.4,0,1.68,1.68,0,0,1-.47-1.27V494.06a1.64,1.64,0,0,1,.49-1.27,1.7,1.7,0,0,1,1.19-.45,1.5,1.5,0,0,1,1.1.45,1.65,1.65,0,0,1,.45,1.22v2.4a6.52,6.52,0,0,1,2.44-2.87,8,8,0,0,1,3.62-1.15l.57-.05C772.1,492.26,772.67,492.75,772.67,493.8Z"/><path class="cls-7" d="M786.17,487.25a2.11,2.11,0,0,1-.61-1.58,2.07,2.07,0,0,1,.61-1.55,2.45,2.45,0,0,1,3.19,0,2.08,2.08,0,0,1,.62,1.55,2.12,2.12,0,0,1-.62,1.58,2.42,2.42,0,0,1-3.19,0Zm.39,26.14a1.68,1.68,0,0,1-.47-1.27V494.06a1.7,1.7,0,0,1,.47-1.27,1.68,1.68,0,0,1,1.21-.45,1.59,1.59,0,0,1,1.18.45,1.73,1.73,0,0,1,.45,1.27v18.06a1.7,1.7,0,0,1-.45,1.29,1.66,1.66,0,0,1-1.18.43A1.68,1.68,0,0,1,786.56,513.39Z"/><path class="cls-7" d="M834.94,500.52v11.6a1.71,1.71,0,0,1-.45,1.27,1.61,1.61,0,0,1-1.19.45,1.59,1.59,0,0,1-1.67-1.72V500.61a6.84,6.84,0,0,0-1-4.15,3.59,3.59,0,0,0-3.06-1.29,4.79,4.79,0,0,0-3.93,1.76,7.26,7.26,0,0,0-1.43,4.75v10.44a1.59,1.59,0,0,1-1.68,1.72,1.61,1.61,0,0,1-1.19-.45,1.71,1.71,0,0,1-.45-1.27V500.61a6.85,6.85,0,0,0-1-4.15,3.65,3.65,0,0,0-3.11-1.29,4.82,4.82,0,0,0-3.91,1.76,7.21,7.21,0,0,0-1.45,4.75v10.44a1.71,1.71,0,0,1-.45,1.27,1.6,1.6,0,0,1-1.19.45,1.59,1.59,0,0,1-1.67-1.72V494.06a1.64,1.64,0,0,1,.47-1.24,1.6,1.6,0,0,1,1.2-.48,1.55,1.55,0,0,1,1.15.45,1.65,1.65,0,0,1,.45,1.22v2.06a6.65,6.65,0,0,1,2.5-2.83,6.91,6.91,0,0,1,3.68-1q4.67,0,6.09,4.11a6.93,6.93,0,0,1,2.62-3,7.37,7.37,0,0,1,4-1.11Q834.94,492.26,834.94,500.52Z"/><path class="cls-7" d="M841.08,487.25a2.12,2.12,0,0,1-.62-1.58,2.08,2.08,0,0,1,.62-1.55,2.45,2.45,0,0,1,3.19,0,2.07,2.07,0,0,1,.61,1.55,2.11,2.11,0,0,1-.61,1.58,2.42,2.42,0,0,1-3.19,0Zm.39,26.14a1.65,1.65,0,0,1-.47-1.27V494.06a1.59,1.59,0,0,1,1.67-1.72,1.61,1.61,0,0,1,1.19.45,1.73,1.73,0,0,1,.45,1.27v18.06a1.53,1.53,0,0,1-1.64,1.72A1.65,1.65,0,0,1,841.47,513.39Z"/><path class="cls-7" d="M867.67,500.52v11.6a1.75,1.75,0,0,1-.43,1.27,1.58,1.58,0,0,1-1.2.45,1.66,1.66,0,0,1-1.23-.45,1.71,1.71,0,0,1-.45-1.27V500.74a6.63,6.63,0,0,0-1.09-4.24,4.18,4.18,0,0,0-3.45-1.33,5.7,5.7,0,0,0-4.38,1.76,6.69,6.69,0,0,0-1.64,4.75v10.44a1.75,1.75,0,0,1-.43,1.27,1.58,1.58,0,0,1-1.2.45,1.66,1.66,0,0,1-1.23-.45,1.71,1.71,0,0,1-.45-1.27V494.06a1.7,1.7,0,0,1,.45-1.24,1.6,1.6,0,0,1,1.23-.48,1.48,1.48,0,0,1,1.16.48,1.67,1.67,0,0,1,.43,1.19v2.19a6.89,6.89,0,0,1,2.74-2.93,7.84,7.84,0,0,1,4-1Q867.67,492.26,867.67,500.52Z"/></g><g class="cls-6"><path class="cls-7" d="M269,545.72a5.64,5.64,0,0,0-1.1,3.79v1.37h4.54a1.38,1.38,0,0,1,1.06.38,1.42,1.42,0,0,1,.37,1,1.24,1.24,0,0,1-.37,1,1.49,1.49,0,0,1-1.06.35h-4.54v16.61a1.67,1.67,0,0,1-.47,1.26,1.61,1.61,0,0,1-1.17.45,1.58,1.58,0,0,1-1.67-1.71V553.62h-2.75a1.49,1.49,0,0,1-1.08-.37,1.24,1.24,0,0,1-.39-1,1.39,1.39,0,0,1,.39-1,1.45,1.45,0,0,1,1.08-.38h2.75v-.77a9.16,9.16,0,0,1,1.84-6.06,7.21,7.21,0,0,1,5.28-2.46l1.06-.09a2.53,2.53,0,0,1,1.53.21,1.16,1.16,0,0,1,.47,1.07c0,.83-.47,1.3-1.43,1.42l-1.06.08A4.68,4.68,0,0,0,269,545.72Z"/><path class="cls-7" d="M288.52,551.9a1.58,1.58,0,0,1-.37,1.1,1.92,1.92,0,0,1-1.27.49l-1.22.13a5.46,5.46,0,0,0-4.08,2,6.81,6.81,0,0,0-1.33,4.17v10.41a1.68,1.68,0,0,1-.45,1.28,1.62,1.62,0,0,1-1.18.43,1.58,1.58,0,0,1-1.68-1.71V552.16a1.61,1.61,0,0,1,.49-1.26,1.7,1.7,0,0,1,1.19-.45,1.5,1.5,0,0,1,1.1.45,1.64,1.64,0,0,1,.45,1.22v2.4a6.42,6.42,0,0,1,2.44-2.87,8,8,0,0,1,3.62-1.16l.57,0C288,550.36,288.52,550.85,288.52,551.9Z"/><path class="cls-7" d="M291.46,545.35a2.13,2.13,0,0,1-.61-1.58,2.09,2.09,0,0,1,.61-1.54,2.43,2.43,0,0,1,3.2,0,2,2,0,0,1,.61,1.54,2.09,2.09,0,0,1-.61,1.58,2.43,2.43,0,0,1-3.2,0Zm.39,26.14a1.67,1.67,0,0,1-.47-1.26V552.16a1.67,1.67,0,0,1,.47-1.26,1.69,1.69,0,0,1,1.21-.45,1.61,1.61,0,0,1,1.19.45,1.7,1.7,0,0,1,.45,1.26v18.07a1.68,1.68,0,0,1-.45,1.28,1.64,1.64,0,0,1-1.19.43A1.69,1.69,0,0,1,291.85,571.49Z"/><path class="cls-7" d="M311.51,570.57a1.24,1.24,0,0,1-.51,1.09,2.29,2.29,0,0,1-1.53.28l-1.11-.08a6.84,6.84,0,0,1-4.83-2.06,8.17,8.17,0,0,1-1.55-5.44V553.62h-2.74a1.5,1.5,0,0,1-1.09-.37,1.24,1.24,0,0,1-.38-1,1.38,1.38,0,0,1,.38-1,1.46,1.46,0,0,1,1.09-.38H302V546a1.7,1.7,0,0,1,.45-1.26,1.66,1.66,0,0,1,1.23-.45,1.59,1.59,0,0,1,1.18.45,1.7,1.7,0,0,1,.45,1.26v4.84h4.54a1.41,1.41,0,0,1,1.05.38,1.39,1.39,0,0,1,.39,1,1.24,1.24,0,0,1-.39,1,1.45,1.45,0,0,1-1.05.37h-4.54v10.91a5.15,5.15,0,0,0,.92,3.41,3.9,3.9,0,0,0,2.77,1.18l1.1.08C311,569.29,311.51,569.74,311.51,570.57Z"/><path class="cls-7" d="M314.87,545.35a2.1,2.1,0,0,1-.62-1.58,2.06,2.06,0,0,1,.62-1.54,2.42,2.42,0,0,1,3.19,0,2,2,0,0,1,.61,1.54,2.09,2.09,0,0,1-.61,1.58,2.42,2.42,0,0,1-3.19,0Zm.39,26.14a1.64,1.64,0,0,1-.47-1.26V552.16a1.58,1.58,0,0,1,1.67-1.71,1.61,1.61,0,0,1,1.19.45,1.7,1.7,0,0,1,.45,1.26v18.07a1.68,1.68,0,0,1-.45,1.28,1.84,1.84,0,0,1-2.39,0Z"/><path class="cls-7" d="M341.5,541.8A1.65,1.65,0,0,1,342,543v27.23a1.72,1.72,0,0,1-.45,1.24,1.63,1.63,0,0,1-1.22.47,1.56,1.56,0,0,1-1.21-.47,1.75,1.75,0,0,1-.43-1.24v-2.31a6.82,6.82,0,0,1-2.64,3,7.65,7.65,0,0,1-4.07,1.07,8,8,0,0,1-4.62-1.37,8.89,8.89,0,0,1-3.11-3.84,13.75,13.75,0,0,1-1.11-5.71,13.5,13.5,0,0,1,1.11-5.65,8.63,8.63,0,0,1,3.11-3.77,8.19,8.19,0,0,1,4.62-1.33,7.65,7.65,0,0,1,4.07,1.07,6.82,6.82,0,0,1,2.64,3V543a1.68,1.68,0,0,1,.43-1.22,1.58,1.58,0,0,1,1.21-.45A1.63,1.63,0,0,1,341.5,541.8Zm-4.44,25.28a9.56,9.56,0,0,0,1.58-5.89,9.46,9.46,0,0,0-1.58-5.86,5.31,5.31,0,0,0-4.48-2.06,5.44,5.44,0,0,0-4.52,2.06,9.14,9.14,0,0,0-1.61,5.78,9.57,9.57,0,0,0,1.61,5.93,5.38,5.38,0,0,0,4.52,2.12A5.27,5.27,0,0,0,337.06,567.08Z"/></g></svg>