<svg id="Layer_1" data-name="Layer 1" xmlns="http://www.w3.org/2000/svg" xmlns:xlink="http://www.w3.org/1999/xlink" width="1110" height="720" viewBox="0 0 1110 720"><defs><style>.cls-1{opacity:0.53;}.cls-2{fill:url(#linear-gradient);}.cls-3{fill:#333;}.cls-4{fill:url(#linear-gradient-2);}.cls-5{fill:none;stroke:#000;stroke-miterlimit:10;stroke-width:11px;}.cls-6{opacity:0.17;filter:url(#AI_GaussianBlur_4);}.cls-7{fill:#fff;}</style><linearGradient id="linear-gradient" x1="3.5" y1="360" x2="1106.5" y2="360" gradientUnits="userSpaceOnUse"><stop offset="0" stop-color="#939392"/><stop offset="1"/></linearGradient><linearGradient id="linear-gradient-2" x1="416.24" y1="400.41" x2="718.87" y2="400.41" xlink:href="#linear-gradient"/><filter id="AI_GaussianBlur_4" name="AI_GaussianBlur_4"><feGaussianBlur stdDeviation="4"/></filter></defs><g class="cls-1"><rect class="cls-2" x="3.5" y="6.5" width="1103" height="707" rx="37.7"/><path class="cls-3" d="M1068.8,8.5a35.75,35.75,0,0,1,35.7,35.7V675.8a35.75,35.75,0,0,1-35.7,35.7H41.2A35.75,35.75,0,0,1,5.5,675.8V44.2A35.75,35.75,0,0,1,41.2,8.5H1068.8m0-4H41.2A39.71,39.71,0,0,0,1.5,44.2V675.8a39.71,39.71,0,0,0,39.7,39.7H1068.8a39.71,39.71,0,0,0,39.7-39.7V44.2a39.71,39.71,0,0,0-39.7-39.7Z"/></g><path d="M406.85,169.94V117.81h23.37v52.13Zm27.09,0V143.46c.44,0,.94-.07,1.37-.07,13.69,0,24.65,11.92,24.65,26.55Zm9.32-50.85a8.37,8.37,0,0,1,0,16.72,8.37,8.37,0,0,1,0-16.72Z"/><path d="M480.53,170.76c-11,0-19.85-9.3-19.85-20.77s8.89-20.78,19.85-20.78Zm3.73,0c11,0,19.85-9.3,19.85-20.77s-8.88-20.78-19.85-20.78Z"/><path d="M508.7,169.94v-39.6h19.85v39.6Zm23.58,0V130.26c11,0,19.85,9.3,19.85,20.78v18.9Z"/><path d="M577.08,134.24v35.7c-11,0-19.86-9.3-19.86-20.78V134.24h-3.65l23.51-20.78v16.88h7.45v3.9Z"/><path d="M603.52,169.94a20.44,20.44,0,0,1,0-40.88Zm3.73,0V129.06c11,0,19.85,9.3,19.85,20.78v20.1Z"/><path d="M632.69,169.94v-57.6h19.86v57.6Zm23.58-39.6h17.49l-17.49,13.8Zm0,39.6v-25.8c11,0,19.86,9.3,19.86,20.77v5Z"/><path d="M698.77,134.24v35.7c-11,0-19.85-9.3-19.85-20.78V134.24h-3.65l23.5-20.78v16.88h7.46v3.9Z"/><g class="cls-1"><circle class="cls-4" cx="567.55" cy="400.41" r="151.31"/></g><path class="cls-5" d="M363.1,446.6l256-134-33,221Z"/><path class="cls-5" d="M619.1,312.6l-155,171"/><path d="M456.6,484.1V565a3.1,3.1,0,0,0,5.56,1.89L509.6,505.1Z"/><g class="cls-6"><path class="cls-7" d="M590.47,5.1h424l-437.43,709H120.5Z"/></g></svg>